<svg width="273" height="118" viewBox="0 0 273 118" fill="none" xmlns="http://www.w3.org/2000/svg">
<rect x="0.478516" width="272" height="118" fill="white"/>
<rect x="0.978516" y="0.5" width="271" height="117" stroke="#1E2846" stroke-opacity="0.12"/>
<path d="M0.455078 46.6113L272.502 46.6113" stroke="#0A0D16" stroke-opacity="0.04" stroke-dasharray="1 1"/>
<rect x="21.1797" y="76.2051" width="58.598" height="13.5886" fill="#F6F6F6"/>
<path d="M145.761 77.676V88.212H146.613V78.492H148.605C148.293 79.5 147.849 80.628 147.297 81.876C148.113 82.908 148.521 83.856 148.521 84.696C148.521 84.936 148.437 85.092 148.293 85.188C148.149 85.284 147.849 85.344 147.393 85.368C147.261 85.368 147.105 85.344 146.925 85.32L147.201 86.196C148.065 86.184 148.677 86.04 149.013 85.776C149.253 85.56 149.385 85.2 149.385 84.696C149.337 83.808 148.929 82.824 148.185 81.744C148.677 80.568 149.109 79.44 149.469 78.36V77.676H145.761ZM149.637 78.984V79.824H151.281C151.269 80.208 151.245 80.808 151.221 81.624C151.173 82.752 150.993 83.772 150.681 84.684C150.357 85.596 149.697 86.58 148.713 87.648L149.349 88.248C150.177 87.408 150.825 86.484 151.293 85.476C151.641 84.648 151.869 83.736 151.989 82.74H154.617C154.605 84.564 154.569 85.764 154.497 86.328C154.365 86.928 154.041 87.24 153.537 87.264C153.201 87.264 152.781 87.24 152.301 87.216L152.577 88.02C152.985 88.056 153.333 88.08 153.621 88.08C154.461 88.056 155.001 87.636 155.217 86.844C155.373 86.112 155.469 84.468 155.493 81.9H152.061C152.109 80.988 152.133 80.292 152.145 79.824H156.117V78.984H153.513C153.333 78.288 153.141 77.688 152.937 77.16L152.073 77.304C152.289 77.808 152.469 78.372 152.637 78.984H149.637ZM159.009 77.22C158.649 78.66 158.085 79.98 157.293 81.168L158.001 81.612C158.445 80.94 158.841 80.196 159.177 79.38H161.817V78.564H159.477C159.597 78.192 159.717 77.796 159.837 77.388L159.009 77.22ZM158.577 80.88V81.66H159.285V83.22H157.629V84.024H159.285V86.808C159.285 87.012 159.177 87.168 158.961 87.264L159.321 88.008C160.473 87.672 161.481 87.24 162.357 86.712L162.201 85.944C161.493 86.4 160.797 86.748 160.101 86.988V84.024H161.997V83.22H160.101V81.66H161.457V80.88H158.577ZM163.545 77.196C163.221 78.852 162.597 80.268 161.673 81.42L162.213 82.104C162.753 81.456 163.209 80.724 163.569 79.908H166.965C166.941 83.532 166.881 85.68 166.785 86.364C166.689 86.976 166.353 87.288 165.789 87.288C165.345 87.288 164.817 87.264 164.217 87.24L164.409 88.02C165.129 88.044 165.633 88.056 165.921 88.056C166.917 88.056 167.481 87.576 167.613 86.616C167.733 85.68 167.805 83.184 167.805 79.104H163.893C164.085 78.528 164.253 77.928 164.385 77.304L163.545 77.196ZM163.689 82.056L163.005 82.476C163.785 83.532 164.397 84.48 164.841 85.344L165.561 84.84C165.129 84.048 164.505 83.112 163.689 82.056ZM171.093 80.616V85.488H178.809V80.328H176.301C176.709 79.944 177.129 79.476 177.537 78.936V78.276H173.373C173.589 77.988 173.793 77.688 173.985 77.376L173.109 77.184C172.149 78.648 170.913 79.824 169.413 80.736L169.965 81.408C170.349 81.156 170.733 80.892 171.093 80.616ZM175.197 80.328H171.441C171.897 79.944 172.329 79.524 172.725 79.068H176.433C176.025 79.548 175.605 79.968 175.197 80.328ZM177.957 84.66H175.365V83.268H177.957V84.66ZM174.489 84.66H171.957V83.268H174.489V84.66ZM171.957 82.476V81.156H174.489V82.476H171.957ZM175.365 81.156H177.957V82.476H175.365V81.156ZM169.809 86.832V87.672H179.937V86.832H169.809ZM185.313 81.408H183.105C183.417 80.568 183.645 79.668 183.813 78.708H185.625V77.868H181.533V78.708H182.997C182.709 80.496 182.109 82.092 181.197 83.484L181.629 84.18C181.917 83.772 182.181 83.352 182.421 82.92V87.804H183.225V86.892H184.521V87.576H185.313V81.408ZM183.225 86.112V82.2H184.521V86.112H183.225ZM186.933 79.356L186.285 83.244H191.133C191.133 85.164 191.037 86.328 190.845 86.736C190.665 87.12 190.113 87.324 189.189 87.324C188.973 87.324 188.601 87.3 188.073 87.252L188.313 88.092C188.697 88.116 189.057 88.128 189.393 88.128C190.449 88.128 191.133 87.9 191.469 87.468C191.781 87.012 191.949 85.344 191.949 82.44H190.677L191.337 77.7H186.177V78.516H190.401L189.801 82.44H187.257L187.785 79.416L186.933 79.356ZM185.913 84.768V85.584H190.305V84.768H185.913Z" fill="#585E71"/>
<path d="M200.777 79L200.777 87" stroke="#DEDEDE"/>
<path d="M214.848 85.4707V87H209.076C209.139 86.4219 209.326 85.875 209.639 85.3594C209.951 84.8398 210.568 84.1523 211.49 83.2969C212.232 82.6055 212.688 82.1367 212.855 81.8906C213.082 81.5508 213.195 81.2148 213.195 80.8828C213.195 80.5156 213.096 80.2344 212.896 80.0391C212.701 79.8398 212.43 79.7402 212.082 79.7402C211.738 79.7402 211.465 79.8438 211.262 80.0508C211.059 80.2578 210.941 80.6016 210.91 81.082L209.27 80.918C209.367 80.0117 209.674 79.3613 210.189 78.9668C210.705 78.5723 211.35 78.375 212.123 78.375C212.971 78.375 213.637 78.6035 214.121 79.0605C214.605 79.5176 214.848 80.0859 214.848 80.7656C214.848 81.1523 214.777 81.5215 214.637 81.873C214.5 82.2207 214.281 82.5859 213.98 82.9688C213.781 83.2227 213.422 83.5879 212.902 84.0645C212.383 84.541 212.053 84.8574 211.912 85.0137C211.775 85.1699 211.664 85.3223 211.578 85.4707H214.848ZM216.002 85.0137L217.596 84.8379C217.635 85.1621 217.736 85.4023 217.9 85.5586C218.064 85.7148 218.281 85.793 218.551 85.793C218.891 85.793 219.18 85.6367 219.418 85.3242C219.656 85.0117 219.809 84.3633 219.875 83.3789C219.461 83.8594 218.943 84.0996 218.322 84.0996C217.646 84.0996 217.062 83.8398 216.57 83.3203C216.082 82.7969 215.838 82.1172 215.838 81.2812C215.838 80.4102 216.096 79.709 216.611 79.1777C217.131 78.6426 217.791 78.375 218.592 78.375C219.463 78.375 220.178 78.7129 220.736 79.3887C221.295 80.0605 221.574 81.168 221.574 82.7109C221.574 84.2812 221.283 85.4141 220.701 86.1094C220.119 86.8047 219.361 87.1523 218.428 87.1523C217.756 87.1523 217.213 86.9746 216.799 86.6191C216.385 86.2598 216.119 85.7246 216.002 85.0137ZM219.729 81.416C219.729 80.8848 219.605 80.4727 219.359 80.1797C219.117 79.8867 218.836 79.7402 218.516 79.7402C218.211 79.7402 217.957 79.8613 217.754 80.1035C217.555 80.3418 217.455 80.7344 217.455 81.2812C217.455 81.8359 217.564 82.2441 217.783 82.5059C218.002 82.7637 218.275 82.8926 218.604 82.8926C218.92 82.8926 219.186 82.7676 219.4 82.5176C219.619 82.2676 219.729 81.9004 219.729 81.416ZM222.682 85.0137L224.275 84.8379C224.314 85.1621 224.416 85.4023 224.58 85.5586C224.744 85.7148 224.961 85.793 225.23 85.793C225.57 85.793 225.859 85.6367 226.098 85.3242C226.336 85.0117 226.488 84.3633 226.555 83.3789C226.141 83.8594 225.623 84.0996 225.002 84.0996C224.326 84.0996 223.742 83.8398 223.25 83.3203C222.762 82.7969 222.518 82.1172 222.518 81.2812C222.518 80.4102 222.775 79.709 223.291 79.1777C223.811 78.6426 224.471 78.375 225.271 78.375C226.143 78.375 226.857 78.7129 227.416 79.3887C227.975 80.0605 228.254 81.168 228.254 82.7109C228.254 84.2812 227.963 85.4141 227.381 86.1094C226.799 86.8047 226.041 87.1523 225.107 87.1523C224.436 87.1523 223.893 86.9746 223.479 86.6191C223.064 86.2598 222.799 85.7246 222.682 85.0137ZM226.408 81.416C226.408 80.8848 226.285 80.4727 226.039 80.1797C225.797 79.8867 225.516 79.7402 225.195 79.7402C224.891 79.7402 224.637 79.8613 224.434 80.1035C224.234 80.3418 224.135 80.7344 224.135 81.2812C224.135 81.8359 224.244 82.2441 224.463 82.5059C224.682 82.7637 224.955 82.8926 225.283 82.8926C225.6 82.8926 225.865 82.7676 226.08 82.5176C226.299 82.2676 226.408 81.9004 226.408 81.416ZM229.326 80.0566V78.5273H234.957V79.7227C234.492 80.1797 234.02 80.8359 233.539 81.6914C233.059 82.5469 232.691 83.457 232.438 84.4219C232.188 85.3828 232.064 86.2422 232.068 87H230.48C230.508 85.8125 230.752 84.6016 231.213 83.3672C231.678 82.1328 232.297 81.0293 233.07 80.0566H229.326ZM238.789 78.375C239.621 78.375 240.271 78.6719 240.74 79.2656C241.299 79.9688 241.578 81.1348 241.578 82.7637C241.578 84.3887 241.297 85.5566 240.734 86.2676C240.27 86.8535 239.621 87.1465 238.789 87.1465C237.953 87.1465 237.279 86.8262 236.768 86.1855C236.256 85.541 236 84.3945 236 82.7461C236 81.1289 236.281 79.9648 236.844 79.2539C237.309 78.668 237.957 78.375 238.789 78.375ZM238.789 79.7402C238.59 79.7402 238.412 79.8047 238.256 79.9336C238.1 80.0586 237.979 80.2852 237.893 80.6133C237.779 81.0391 237.723 81.7559 237.723 82.7637C237.723 83.7715 237.773 84.4648 237.875 84.8438C237.977 85.2188 238.104 85.4688 238.256 85.5938C238.412 85.7188 238.59 85.7812 238.789 85.7812C238.988 85.7812 239.166 85.7188 239.322 85.5938C239.479 85.4648 239.6 85.2363 239.686 84.9082C239.799 84.4863 239.855 83.7715 239.855 82.7637C239.855 81.7559 239.805 81.0645 239.703 80.6895C239.602 80.3105 239.473 80.0586 239.316 79.9336C239.164 79.8047 238.988 79.7402 238.789 79.7402ZM246.898 87H245.252V80.7949C244.65 81.3574 243.941 81.7734 243.125 82.043V80.5488C243.555 80.4082 244.021 80.1426 244.525 79.752C245.029 79.3574 245.375 78.8984 245.562 78.375H246.898V87Z" fill="#FF8B00"/>
<rect x="141.277" y="71.5" width="112" height="23" rx="1.5" stroke="#DEDEDE" stroke-dasharray="1 1"/>
<path d="M22.653 24.6099C23.6899 26.517 25.2381 26.339 25.5728 24.6903L24.5195 22.3481C24.3443 21.992 23.8181 22.2505 23.9776 22.6066L24.5516 23.8009C24.6634 24.043 24.3123 24.2047 24.2005 23.9789L23.0682 21.5861L22.7805 20.9886C22.6053 20.6325 22.0783 20.8917 22.2535 21.2471L23.0675 22.9278C23.2113 23.219 22.7648 23.4455 22.6209 23.1542L22.3019 22.4756C22.1267 22.1195 21.6474 22.3623 21.8233 22.7177C22.685 24.5928 21.7756 22.7825 22.653 24.6092V24.6099Z" fill="#FF8B00"/>
<path d="M32.7681 16.3477L26.0824 20.9054C27.2632 20.4048 27.5822 20.8897 27.0396 21.9238C26.7362 22.49 26.2576 23.3951 25.6039 24.6556C24.8853 26.013 23.434 26.013 22.6677 24.5915L25.3646 30.2638L32.7681 16.3491V16.3477ZM23.8491 22.1339C23.9395 22.1282 24.0243 22.0882 24.0862 22.0222C24.1482 21.9562 24.1827 21.8691 24.1827 21.7785C24.1827 21.688 24.1482 21.6008 24.0862 21.5348C24.0243 21.4688 23.9395 21.4289 23.8491 21.4231C23.6576 21.4231 23.5144 21.5848 23.5144 21.7792C23.5144 21.9729 23.6739 22.1339 23.8491 22.1339ZM21.5987 22.0534C21.6347 22.0535 21.6703 22.0464 21.7035 22.0326C21.7367 22.0188 21.7668 21.9985 21.7921 21.9729C21.8173 21.9473 21.8373 21.9169 21.8506 21.8836C21.864 21.8502 21.8706 21.8145 21.8701 21.7785C21.8685 21.7068 21.8396 21.6385 21.7893 21.5874C21.739 21.5363 21.6711 21.5063 21.5995 21.5036C21.5277 21.5062 21.4596 21.536 21.4092 21.5871C21.3587 21.6382 21.3297 21.7067 21.3281 21.7785C21.3281 21.9238 21.4556 22.0534 21.5987 22.0534ZM22.0937 20.6149C22.1788 20.6141 22.2602 20.5797 22.32 20.5191C22.3798 20.4585 22.4131 20.3767 22.4127 20.2915C22.4131 20.2064 22.3798 20.1246 22.32 20.064C22.2602 20.0034 22.1788 19.969 22.0937 19.9682C22.0086 19.969 21.9272 20.0034 21.8674 20.064C21.8076 20.1246 21.7743 20.2064 21.7746 20.2915C21.7746 20.4696 21.9185 20.6149 22.0937 20.6149ZM23.4653 21.2772C23.6091 21.2772 23.7366 21.1483 23.7366 21.003C23.735 20.9313 23.7061 20.8629 23.6558 20.8118C23.6055 20.7608 23.5376 20.7308 23.466 20.7281C23.43 20.7279 23.3943 20.7349 23.361 20.7487C23.3277 20.7625 23.2975 20.7827 23.2722 20.8083C23.2469 20.834 23.2269 20.8644 23.2134 20.8978C23.2 20.9312 23.1934 20.967 23.194 21.003C23.1783 21.1646 23.3058 21.2772 23.4653 21.2772ZM31.3317 23.848L32.3529 18.0127L26.1302 29.7468C27.1193 28.2441 29.4011 23.3623 31.3317 23.8473V23.848Z" fill="#FF8B00"/>
<path d="M46.0405 19.127L43.3151 27.4698H41.1922L38.4668 19.127H40.5897L42.5624 25.1817L44.5194 19.127H46.0405ZM52.6642 24.4346C52.6493 25.3647 52.3181 26.1117 51.6701 26.7064C51.1132 27.2099 50.3754 27.4698 49.4417 27.4698H46.9129V26.0968H49.4425C49.8192 26.0968 50.1354 25.9287 50.3611 25.5933C50.5869 25.2885 50.7072 24.8769 50.7072 24.3883C50.7072 23.8542 50.5719 23.4276 50.3155 23.1228C50.0748 22.8636 49.7886 22.7262 49.4425 22.7262H48.9012V25.8226H46.9286V19.127H48.9012V21.3382H49.4425C50.5121 21.3382 51.294 21.5824 51.7918 22.0859C52.3637 22.65 52.65 23.4276 52.6649 24.4346H52.6642Z" fill="#404862"/>
<path d="M56.0062 19.7059V21.064C55.1175 21.064 54.5007 20.9266 54.1689 20.621C53.7929 20.3162 53.6419 19.8128 53.7024 19.127H55.3738C55.3439 19.3249 55.3738 19.4773 55.4792 19.5685C55.5846 19.6611 55.7648 19.7059 56.0062 19.7059Z" fill="#FF8B00"/>
<path d="M55.9023 21.3256H53.9297V27.4715H55.9023V21.3256ZM60.72 26.0991V27.4722H59.6518C58.9133 27.4722 58.4162 27.3041 58.1606 26.953C57.9498 26.6938 57.8593 26.2515 57.8593 25.6419V22.7285H56.9407V21.3406H57.8593V19.6934H59.832V21.3256H60.9615V22.7136H59.8313V25.6263C59.8313 25.9318 59.9666 26.0842 60.2073 26.0991H60.72Z" fill="#404862"/>
</svg>
