<svg width="25" height="24" viewBox="0 0 25 24" fill="none" xmlns="http://www.w3.org/2000/svg">
<path d="M12.7773 7.906C12.6116 7.906 12.4526 7.84015 12.3354 7.72294C12.2182 7.60573 12.1523 7.44676 12.1523 7.281V4.625C12.1523 4.45924 12.2182 4.30027 12.3354 4.18306C12.4526 4.06585 12.6116 4 12.7773 4C12.9431 4 13.1021 4.06585 13.2193 4.18306C13.3365 4.30027 13.4023 4.45924 13.4023 4.625V7.281C13.4023 7.627 13.1223 7.906 12.7773 7.906Z" fill="white"/>
<path opacity="0.9" d="M10.7316 8.45523C10.5882 8.53793 10.4178 8.56037 10.2579 8.51763C10.098 8.47488 9.96157 8.37045 9.87856 8.22723L8.55056 5.92723C8.47658 5.78448 8.46046 5.61872 8.50554 5.46439C8.55063 5.31007 8.65345 5.17905 8.79264 5.09858C8.93183 5.0181 9.09667 4.99436 9.25291 5.03229C9.40915 5.07022 9.54476 5.1669 9.63156 5.30223L10.9596 7.60223C11.0006 7.6732 11.0273 7.75157 11.0381 7.83286C11.0489 7.91415 11.0435 7.99677 11.0224 8.07599C11.0012 8.15521 10.9646 8.22948 10.9147 8.29455C10.8648 8.35962 10.8026 8.41422 10.7316 8.45523Z" fill="white"/>
<path opacity="0.85" d="M9.23046 9.95283C9.18946 10.0238 9.13486 10.0861 9.06978 10.136C9.00471 10.1859 8.93044 10.2224 8.85122 10.2436C8.772 10.2648 8.68938 10.2702 8.60809 10.2594C8.5268 10.2486 8.44843 10.2219 8.37746 10.1808L6.07746 8.85283C5.93411 8.76995 5.82956 8.63352 5.7868 8.47355C5.74404 8.31358 5.76658 8.14318 5.84946 7.99983C5.93234 7.85648 6.06877 7.75192 6.22874 7.70916C6.38871 7.66641 6.55911 7.68895 6.70246 7.77183L9.00246 9.09983C9.30046 9.27183 9.40246 9.65483 9.23046 9.95283Z" fill="white"/>
<path opacity="0.8" d="M8.68334 12C8.68334 12.345 8.40334 12.625 8.05834 12.625H5.40234C5.23658 12.625 5.07761 12.5592 4.9604 12.4419C4.84319 12.3247 4.77734 12.1658 4.77734 12C4.77734 11.8342 4.84319 11.6753 4.9604 11.5581C5.07761 11.4408 5.23658 11.375 5.40234 11.375H8.05834C8.40434 11.375 8.68334 11.655 8.68334 12Z" fill="white"/>
<path opacity="0.75" d="M9.23355 14.0468C9.31625 14.1902 9.33869 14.3606 9.29595 14.5205C9.2532 14.6804 9.14877 14.8168 9.00555 14.8998L6.70555 16.2278C6.56281 16.3018 6.39704 16.3179 6.24271 16.2728C6.08839 16.2278 5.95737 16.1249 5.8769 15.9857C5.79642 15.8466 5.77268 15.6817 5.81061 15.5255C5.84854 15.3692 5.94522 15.2336 6.08055 15.1468L8.38055 13.8188C8.45152 13.7777 8.52989 13.751 8.61118 13.7403C8.69247 13.7295 8.77509 13.7349 8.85431 13.756C8.93353 13.7772 9.0078 13.8138 9.07287 13.8637C9.13794 13.9136 9.19255 13.9758 9.23355 14.0468Z" fill="white"/>
<path opacity="0.7" d="M10.7297 15.545C10.8007 15.586 10.8629 15.6406 10.9128 15.7057C10.9627 15.7708 10.9993 15.845 11.0205 15.9243C11.0417 16.0035 11.047 16.0861 11.0362 16.1674C11.0255 16.2487 10.9988 16.3271 10.9577 16.398L9.62968 18.698C9.58864 18.769 9.53403 18.8312 9.46895 18.8811C9.40387 18.9309 9.32961 18.9675 9.2504 18.9887C9.17119 19.0099 9.08859 19.0152 9.00731 19.0045C8.92603 18.9937 8.84766 18.9671 8.77668 18.926C8.7057 18.885 8.6435 18.8304 8.59363 18.7653C8.54376 18.7002 8.50719 18.626 8.48602 18.5467C8.46485 18.4675 8.45948 18.3849 8.47024 18.3036C8.48099 18.2224 8.50764 18.144 8.54868 18.073L9.87668 15.773C9.95969 15.6298 10.0961 15.5254 10.256 15.4826C10.4159 15.4399 10.5863 15.4623 10.7297 15.545Z" fill="white"/>
<path opacity="0.65" d="M12.7773 16.0942C13.1223 16.0942 13.4023 16.3742 13.4023 16.7192V19.3752C13.4023 19.541 13.3365 19.7 13.2193 19.8172C13.1021 19.9344 12.9431 20.0002 12.7773 20.0002C12.6116 20.0002 12.4526 19.9344 12.3354 19.8172C12.2182 19.7 12.1523 19.541 12.1523 19.3752V16.7192C12.1523 16.3732 12.4323 16.0942 12.7773 16.0942Z" fill="white"/>
<path opacity="0.6" d="M14.8237 15.545C14.9671 15.4623 15.1374 15.4399 15.2973 15.4826C15.4572 15.5254 15.5937 15.6298 15.6767 15.773L17.0047 18.073C17.0787 18.2158 17.0948 18.3815 17.0497 18.5359C17.0046 18.6902 16.9018 18.8212 16.7626 18.9017C16.6234 18.9822 16.4586 19.0059 16.3023 18.968C16.1461 18.93 16.0105 18.8334 15.9237 18.698L14.5957 16.398C14.5546 16.3271 14.5279 16.2487 14.5171 16.1674C14.5064 16.0861 14.5117 16.0035 14.5329 15.9243C14.5541 15.845 14.5906 15.7708 14.6405 15.7057C14.6904 15.6406 14.7527 15.586 14.8237 15.545Z" fill="white"/>
<path opacity="0.55" d="M16.3219 14.0468C16.3629 13.9758 16.4175 13.9136 16.4826 13.8637C16.5476 13.8138 16.6219 13.7772 16.7011 13.756C16.7803 13.7349 16.863 13.7295 16.9442 13.7403C17.0255 13.751 17.1039 13.7777 17.1749 13.8188L19.4749 15.1468C19.5459 15.1879 19.6081 15.2425 19.6579 15.3076C19.7078 15.3726 19.7444 15.4469 19.7655 15.5261C19.7867 15.6053 19.7921 15.6879 19.7813 15.7692C19.7706 15.8505 19.7439 15.9288 19.7029 15.9998C19.6618 16.0708 19.6072 16.133 19.5421 16.1829C19.4771 16.2327 19.4028 16.2693 19.3236 16.2905C19.2444 16.3117 19.1618 16.317 19.0805 16.3063C18.9992 16.2955 18.9209 16.2689 18.8499 16.2278L16.5499 14.8998C16.4067 14.8168 16.3022 14.6804 16.2595 14.5205C16.2167 14.3606 16.2392 14.1902 16.3219 14.0468Z" fill="white"/>
<path opacity="0.5" d="M16.8711 12C16.8711 11.655 17.1511 11.375 17.4961 11.375H20.1521C20.3179 11.375 20.4768 11.4408 20.594 11.5581C20.7112 11.6753 20.7771 11.8342 20.7771 12C20.7771 12.1658 20.7112 12.3247 20.594 12.4419C20.4768 12.5592 20.3179 12.625 20.1521 12.625H17.4961C17.414 12.625 17.3327 12.6088 17.2569 12.5774C17.1811 12.546 17.1122 12.5 17.0542 12.4419C16.9961 12.3839 16.9501 12.315 16.9187 12.2392C16.8873 12.1633 16.8711 12.0821 16.8711 12Z" fill="white"/>
<path opacity="0.4" d="M16.3219 9.95324C16.2392 9.80985 16.2167 9.63951 16.2595 9.47959C16.3022 9.31968 16.4067 9.18325 16.5499 9.10024L18.8499 7.77224C18.9926 7.69826 19.1584 7.68214 19.3127 7.72722C19.467 7.77231 19.5981 7.87513 19.6785 8.01432C19.759 8.1535 19.7827 8.31835 19.7448 8.47459C19.7069 8.63083 19.6102 8.76644 19.4749 8.85324L17.1749 10.1812C17.1039 10.2223 17.0255 10.249 16.9442 10.2598C16.863 10.2706 16.7803 10.2652 16.7011 10.244C16.6219 10.2229 16.5476 10.1863 16.4826 10.1364C16.4175 10.0865 16.3629 10.0243 16.3219 9.95324Z" fill="white"/>
<path opacity="0.3" d="M14.8237 8.45507C14.7527 8.41407 14.6904 8.35947 14.6405 8.29439C14.5906 8.22932 14.5541 8.15505 14.5329 8.07583C14.5117 7.99661 14.5064 7.91399 14.5171 7.8327C14.5279 7.75141 14.5546 7.67304 14.5957 7.60207L15.9237 5.30207C16.0066 5.15872 16.143 5.05417 16.303 5.01141C16.4629 4.96865 16.6333 4.99119 16.7767 5.07407C16.92 5.15695 17.0246 5.29338 17.0673 5.45335C17.1101 5.61332 17.0876 5.78372 17.0047 5.92707L15.6767 8.22707C15.5937 8.37029 15.4572 8.47473 15.2973 8.51747C15.1374 8.56021 14.9671 8.53777 14.8237 8.45507Z" fill="white"/>
</svg>
