<svg width="93" height="72" viewBox="0 0 93 72" fill="none" xmlns="http://www.w3.org/2000/svg">
<path d="M29.172 29.3165C30.2056 25.4593 30.7223 23.5307 31.8681 22.2579C32.8757 21.1388 34.2117 20.3675 35.6846 20.0544C37.3598 19.6986 39.2884 20.2153 43.1456 21.2489L55.4543 24.547C59.3115 25.5805 61.2401 26.0973 62.5095 27.2421C63.6299 28.2494 64.4025 29.5858 64.7164 31.0595C65.0688 32.7338 64.552 34.6624 63.5185 38.5196L58.779 56.2077C57.7454 60.0649 57.2286 61.9935 56.0864 63.2673C55.0777 64.3866 53.7404 65.1577 52.2664 65.4698C50.5946 65.8266 48.666 65.3098 44.8088 64.2763L32.5002 60.9782C28.643 59.9446 26.7144 59.4279 25.4415 58.2821C24.3225 57.2745 23.5511 55.9385 23.238 54.4656C22.8822 52.7904 23.399 50.8618 24.4325 47.0046L29.172 29.3165Z" fill="#FE871E"/>
<path d="M66.0638 38.9218L46.6426 41.4768C45.3163 41.6505 43.9731 41.3209 42.8778 40.553L26.5709 29.1297L28.6162 26.2079L44.9222 37.6347C45.288 37.8911 45.7368 38.0008 46.1797 37.9421L65.5974 35.3862L66.0638 38.9218Z" fill="white"/>
<path d="M47.9433 60.6597L46.2557 60.2075C46.1762 60.1883 46.1051 60.1434 46.0538 60.0796C46.0303 60.0518 46.014 60.0187 46.0061 59.9831C45.9983 59.9476 45.9992 59.9107 46.0088 59.8756L46.699 57.2995L43.875 56.5428C43.7954 56.5236 43.7244 56.4786 43.6731 56.4149C43.6496 56.3871 43.6332 56.354 43.6254 56.3184C43.6176 56.2829 43.6185 56.246 43.6281 56.2109L43.8431 55.4084C43.8615 55.3396 43.9048 55.2884 43.9831 55.2577C44.059 55.2243 44.1441 55.2184 44.2238 55.241L47.0479 55.9977L47.225 55.3365L44.401 54.5798C44.3214 54.5606 44.2504 54.5156 44.1991 54.4518C44.1752 54.4236 44.1587 54.3898 44.151 54.3536C44.1433 54.3175 44.1447 54.2799 44.155 54.2444L44.3718 53.4351C44.3903 53.3662 44.4326 53.3185 44.511 53.2878C44.5868 53.2544 44.6719 53.2485 44.7517 53.2711L46.8525 53.834L44.9101 48.4781C44.8951 48.4348 44.8933 48.3881 44.9052 48.3438C44.917 48.2996 44.9419 48.26 44.9766 48.2301C45.02 48.1968 45.0709 48.1745 45.1248 48.1652C45.1788 48.1559 45.2341 48.1597 45.2862 48.1765L47.1873 48.6859C47.3147 48.72 47.3948 48.7931 47.4353 48.9037L48.6543 52.7849C48.7248 53.0179 48.824 53.3915 48.9442 53.9072C49.0394 53.7999 49.1873 53.6475 49.3825 53.4562C49.5812 53.2658 49.7097 53.1305 49.7819 53.0539L52.5305 50.2763C52.608 50.1937 52.7183 50.1679 52.856 50.2048L54.7295 50.7068C54.8397 50.7363 54.9182 50.8017 54.9571 50.9044C55.0007 50.9899 54.9785 51.0725 54.9029 51.1482L50.628 54.8419L52.7322 55.4058C52.8126 55.4261 52.8833 55.4737 52.9323 55.5406C52.9548 55.5676 52.9707 55.5995 52.9788 55.6337C52.9869 55.6678 52.9871 55.7035 52.9792 55.7377L52.7614 56.5505C52.7527 56.5859 52.7353 56.6186 52.7106 56.6456C52.686 56.6725 52.655 56.6928 52.6204 56.7046C52.5442 56.735 52.46 56.7385 52.3815 56.7145L49.5403 55.9531L49.3622 56.6178L52.2069 57.3801C52.2871 57.3993 52.3581 57.4457 52.4079 57.5114C52.4307 57.5389 52.4468 57.5714 52.4548 57.6062C52.4627 57.6411 52.4624 57.6773 52.4538 57.712L52.2388 58.5144C52.2299 58.5498 52.2123 58.5823 52.1877 58.6092C52.1631 58.6361 52.1322 58.6565 52.0979 58.6686C52.0216 58.6987 51.9374 58.7022 51.859 58.6784L49.0143 57.9162L48.324 60.4923C48.3056 60.5611 48.2564 60.607 48.1849 60.6395C48.1096 60.6758 48.0235 60.683 47.9433 60.6597Z" fill="white"/>
<ellipse opacity="0.3" cx="66.8818" cy="17.8652" rx="1.53415" ry="1.51147" fill="#FE871E"/>
<g opacity="0.24">
<path d="M75.19 40.6067C75.6472 38.9007 75.8757 38.0477 76.3825 37.4847C76.8281 36.9898 77.419 36.6486 78.0705 36.5102C78.8114 36.3528 79.6644 36.5814 81.3704 37.0385L86.8143 38.4972C88.5203 38.9543 89.3733 39.1829 89.9347 39.6892C90.4303 40.1347 90.772 40.7258 90.9108 41.3776C91.0666 42.1181 90.8381 42.9711 90.381 44.6771L88.2848 52.5003C87.8276 54.2062 87.5991 55.0592 87.0939 55.6226C86.6477 56.1177 86.0563 56.4587 85.4043 56.5968C84.665 56.7545 83.812 56.526 82.106 56.0689L76.662 54.6102C74.956 54.153 74.103 53.9245 73.5401 53.4177C73.0452 52.9721 72.704 52.3812 72.5655 51.7298C72.4081 50.9888 72.6367 50.1358 73.0938 48.4299L75.19 40.6067Z" fill="#FE871E"/>
<path d="M91.5026 44.8554L82.9129 45.9854C82.3263 46.0622 81.7322 45.9164 81.2478 45.5768L74.0355 40.5244L74.9401 39.2322L82.152 44.2861C82.3138 44.3995 82.5123 44.448 82.7082 44.4221L91.2964 43.2916L91.5026 44.8554Z" fill="white"/>
<path d="M83.4818 54.4694L82.7355 54.2694C82.7003 54.2609 82.6688 54.241 82.6461 54.2128C82.6358 54.2005 82.6285 54.1859 82.6251 54.1701C82.6216 54.1544 82.622 54.1381 82.6262 54.1226L82.9315 52.9832L81.6825 52.6485C81.6473 52.6401 81.6159 52.6202 81.5932 52.592C81.5828 52.5797 81.5756 52.565 81.5721 52.5493C81.5686 52.5336 81.569 52.5173 81.5733 52.5017L81.6684 52.1468C81.6765 52.1164 81.6957 52.0937 81.7303 52.0802C81.7639 52.0654 81.8015 52.0628 81.8368 52.0728L83.0858 52.4074L83.1642 52.115L81.9151 51.7803C81.8799 51.7718 81.8485 51.7519 81.8258 51.7237C81.8153 51.7112 81.808 51.6963 81.8046 51.6803C81.8012 51.6643 81.8018 51.6477 81.8063 51.632L81.9022 51.274C81.9104 51.2436 81.9291 51.2225 81.9638 51.2089C81.9973 51.1941 82.035 51.1915 82.0702 51.2015L82.9994 51.4505L82.1403 49.0816C82.1337 49.0625 82.1329 49.0418 82.1381 49.0223C82.1434 49.0027 82.1544 48.9852 82.1697 48.9719C82.1889 48.9572 82.2114 48.9474 82.2353 48.9432C82.2591 48.9391 82.2836 48.9408 82.3067 48.9482L83.1475 49.1735C83.2038 49.1886 83.2392 49.221 83.2572 49.2699L83.7963 50.9865C83.8275 51.0895 83.8714 51.2547 83.9245 51.4829C83.9666 51.4354 84.032 51.368 84.1184 51.2834C84.2063 51.1992 84.2631 51.1393 84.295 51.1054L85.5107 49.877C85.545 49.8404 85.5937 49.829 85.6547 49.8453L86.4833 50.0674C86.532 50.0804 86.5667 50.1093 86.584 50.1547C86.6032 50.1926 86.5934 50.2291 86.56 50.2626L84.6692 51.8963L85.5999 52.1456C85.6354 52.1546 85.6667 52.1757 85.6884 52.2053C85.6983 52.2172 85.7054 52.2313 85.709 52.2464C85.7126 52.2616 85.7126 52.2773 85.7091 52.2925L85.6128 52.6519C85.609 52.6676 85.6013 52.6821 85.5904 52.694C85.5795 52.7059 85.5657 52.7149 85.5505 52.7201C85.5168 52.7335 85.4795 52.7351 85.4448 52.7245L84.1882 52.3877L84.1094 52.6817L85.3676 53.0188C85.403 53.0273 85.4345 53.0479 85.4565 53.077C85.4666 53.0891 85.4737 53.1035 85.4772 53.1189C85.4807 53.1343 85.4806 53.1503 85.4768 53.1657L85.3817 53.5206C85.3777 53.5362 85.37 53.5506 85.3591 53.5625C85.3482 53.5744 85.3345 53.5834 85.3193 53.5887C85.2856 53.6021 85.2484 53.6036 85.2137 53.5931L83.9555 53.256L83.6502 54.3953C83.6421 54.4258 83.6203 54.4461 83.5887 54.4605C83.5554 54.4765 83.5173 54.4797 83.4818 54.4694Z" fill="white"/>
</g>
<g opacity="0.15">
<path d="M3.40991 40.5892C3.67796 39.5888 3.81199 39.0886 4.10915 38.7585C4.37048 38.4683 4.71698 38.2682 5.09899 38.187C5.53346 38.0947 6.03366 38.2288 7.03405 38.4968L10.2264 39.3522C11.2268 39.6203 11.727 39.7543 12.0562 40.0512C12.3468 40.3125 12.5472 40.6591 12.6286 41.0413C12.72 41.4755 12.586 41.9757 12.3179 42.9761L11.0887 47.5637C10.8206 48.564 10.6866 49.0642 10.3903 49.3946C10.1287 49.6849 9.78189 49.8849 9.39959 49.9659C8.96601 50.0584 8.46582 49.9243 7.46542 49.6563L4.27309 48.8009C3.27269 48.5329 2.77249 48.3988 2.44237 48.1017C2.15214 47.8403 1.95209 47.4938 1.87089 47.1118C1.7786 46.6774 1.91263 46.1772 2.18068 45.1768L3.40991 40.5892Z" fill="#FE871E"/>
<path d="M12.9821 43.0806L7.94509 43.7432C7.6011 43.7883 7.25272 43.7028 6.96866 43.5036L2.73936 40.5409L3.26981 39.7831L7.49888 42.7467C7.59376 42.8132 7.71016 42.8417 7.82503 42.8265L12.8612 42.1636L12.9821 43.0806Z" fill="white"/>
<path d="M8.27436 48.7182L7.83668 48.601C7.81604 48.596 7.79762 48.5843 7.78431 48.5678C7.77822 48.5606 7.77398 48.552 7.77195 48.5428C7.76991 48.5336 7.77015 48.524 7.77263 48.5149L7.95166 47.8468L7.21922 47.6505C7.19858 47.6455 7.18016 47.6339 7.16685 47.6173C7.16076 47.6101 7.15652 47.6015 7.15448 47.5923C7.15245 47.5831 7.15269 47.5735 7.15517 47.5644L7.21094 47.3563C7.21573 47.3384 7.22694 47.3252 7.24726 47.3172C7.26694 47.3085 7.28901 47.307 7.30969 47.3129L8.04213 47.5091L8.08808 47.3376L7.35565 47.1414C7.335 47.1364 7.31658 47.1247 7.30327 47.1082C7.29708 47.1009 7.2928 47.0921 7.2908 47.0827C7.28881 47.0733 7.28916 47.0636 7.29183 47.0544L7.34808 46.8445C7.35287 46.8266 7.36384 46.8142 7.38416 46.8063C7.40384 46.7976 7.42591 46.7961 7.44659 46.802L7.99145 46.948L7.48769 45.5589C7.48378 45.5476 7.48333 45.5355 7.48641 45.524C7.48948 45.5126 7.49593 45.5023 7.50492 45.4945C7.51619 45.4859 7.52938 45.4801 7.54337 45.4777C7.55736 45.4753 7.57172 45.4763 7.58524 45.4806L8.07829 45.6128C8.11134 45.6216 8.1321 45.6406 8.14261 45.6692L8.45878 46.6759C8.47705 46.7363 8.50279 46.8332 8.53396 46.9669C8.55865 46.9391 8.597 46.8996 8.64763 46.85C8.69916 46.8006 8.7325 46.7655 8.75123 46.7456L9.46409 46.0252C9.48419 46.0038 9.51279 45.9971 9.54851 46.0067L10.0344 46.1369C10.063 46.1446 10.0834 46.1615 10.0934 46.1881C10.1047 46.2103 10.099 46.2317 10.0794 46.2514L8.97065 47.2094L9.5164 47.3556C9.53724 47.3609 9.55559 47.3732 9.5683 47.3906C9.57413 47.3976 9.57825 47.4058 9.58036 47.4147C9.58247 47.4236 9.5825 47.4328 9.58045 47.4417L9.52397 47.6525C9.52172 47.6617 9.51719 47.6702 9.5108 47.6772C9.50441 47.6841 9.49637 47.6894 9.48741 47.6925C9.46765 47.7004 9.44579 47.7013 9.42545 47.695L8.68855 47.4976L8.64236 47.67L9.38016 47.8677C9.40095 47.8726 9.41938 47.8847 9.43229 47.9017C9.43821 47.9089 9.44238 47.9173 9.44444 47.9263C9.44651 47.9354 9.44643 47.9447 9.44421 47.9537L9.38844 48.1619C9.38612 48.171 9.38156 48.1795 9.37518 48.1864C9.3688 48.1934 9.3608 48.1987 9.35188 48.2018C9.3321 48.2097 9.31027 48.2105 9.28993 48.2044L8.55213 48.0067L8.37311 48.6748C8.36832 48.6927 8.35556 48.7046 8.33703 48.713C8.3175 48.7224 8.29518 48.7243 8.27436 48.7182Z" fill="white"/>
</g>
<path d="M29.1877 29.3165C30.2212 25.4593 30.738 23.5307 31.8837 22.2579C32.8913 21.1388 34.2273 20.3675 35.7002 20.0544C37.3754 19.6986 39.304 20.2153 43.1612 21.2489L55.4699 24.547C59.3271 25.5805 61.2557 26.0973 62.5251 27.2421C63.6456 28.2494 64.4182 29.5858 64.732 31.0595C65.0844 32.7338 64.5676 34.6624 63.5341 38.5196L58.7946 56.2077C57.761 60.0649 57.2443 61.9935 56.102 63.2673C55.0933 64.3866 53.756 65.1577 52.282 65.4698C50.6103 65.8266 48.6817 65.3098 44.8244 64.2763L32.5158 60.9782C28.6586 59.9446 26.73 59.4279 25.4571 58.2821C24.3381 57.2745 23.5668 55.9385 23.2537 54.4656C22.8978 52.7904 23.4146 50.8618 24.4482 47.0046L29.1877 29.3165Z" fill="url(#paint0_linear)"/>
<path d="M63.3304 39.2387L46.6496 41.477C45.3232 41.6506 43.98 41.321 42.8848 40.5531L28.7835 30.7285L29.8266 26.9618L44.9291 37.6348C45.2949 37.8912 45.7437 38.001 46.1866 37.9422L64.2993 35.5508L63.3304 39.2387Z" fill="white"/>
<path d="M47.9472 60.6597L46.2597 60.2075C46.1801 60.1883 46.109 60.1434 46.0577 60.0796C46.0342 60.0518 46.0179 60.0187 46.01 59.9831C46.0022 59.9476 46.0031 59.9107 46.0127 59.8756L46.703 57.2995L43.8789 56.5428C43.7993 56.5236 43.7283 56.4787 43.677 56.4149C43.6535 56.3871 43.6371 56.354 43.6293 56.3184C43.6215 56.2829 43.6224 56.246 43.632 56.2109L43.847 55.4084C43.8654 55.3396 43.9087 55.2884 43.987 55.2577C44.0629 55.2243 44.148 55.2184 44.2277 55.241L47.0518 55.9977L47.2289 55.3365L44.4049 54.5798C44.3253 54.5606 44.2543 54.5156 44.203 54.4518C44.1791 54.4236 44.1626 54.3898 44.1549 54.3536C44.1472 54.3175 44.1486 54.2799 44.1589 54.2444L44.3757 53.4351C44.3942 53.3662 44.4365 53.3185 44.5149 53.2878C44.5907 53.2544 44.6758 53.2485 44.7556 53.2711L46.8564 53.834L44.914 48.4781C44.899 48.4348 44.8972 48.3881 44.9091 48.3438C44.9209 48.2996 44.9458 48.26 44.9805 48.2301C45.0239 48.1968 45.0748 48.1745 45.1287 48.1652C45.1827 48.1559 45.238 48.1597 45.2901 48.1765L47.1912 48.6859C47.3186 48.72 47.3987 48.7931 47.4392 48.9037L48.6583 52.7849C48.7287 53.0179 48.8279 53.3915 48.9481 53.9072C49.0433 53.7999 49.1912 53.6475 49.3864 53.4562C49.5851 53.2658 49.7136 53.1305 49.7858 53.0539L52.5344 50.2763C52.6119 50.1937 52.7222 50.1679 52.8599 50.2048L54.7334 50.7068C54.8436 50.7363 54.9221 50.8017 54.961 50.9044C55.0046 50.9899 54.9824 51.0725 54.9068 51.1482L50.6319 54.8419L52.7361 55.4058C52.8165 55.4261 52.8872 55.4737 52.9362 55.5406C52.9587 55.5676 52.9746 55.5995 52.9827 55.6337C52.9909 55.6678 52.991 55.7035 52.9831 55.7377L52.7653 56.5505C52.7566 56.5859 52.7392 56.6186 52.7145 56.6456C52.6899 56.6725 52.6589 56.6928 52.6243 56.7046C52.5481 56.735 52.4639 56.7385 52.3855 56.7145L49.5442 55.9531L49.3661 56.6178L52.2108 57.3801C52.291 57.3993 52.362 57.4457 52.4118 57.5114C52.4347 57.5389 52.4507 57.5714 52.4587 57.6063C52.4667 57.6411 52.4663 57.6773 52.4578 57.712L52.2427 58.5144C52.2338 58.5498 52.2162 58.5823 52.1916 58.6092C52.167 58.6361 52.1362 58.6565 52.1018 58.6686C52.0255 58.6987 51.9414 58.7022 51.8629 58.6784L49.0182 57.9162L48.3279 60.4923C48.3095 60.5611 48.2603 60.607 48.1888 60.6395C48.1135 60.6758 48.0275 60.683 47.9472 60.6597Z" fill="white"/>
<rect opacity="0.2" x="31.0117" y="6.95581" width="3.06338" height="3.06338" transform="rotate(-60 31.0117 6.95581)" fill="#FF881F"/>
<rect opacity="0.2" x="16.5195" y="28.3945" width="1.58405" height="1.58405" transform="rotate(-45 16.5195 28.3945)" fill="#FF881F"/>
<rect opacity="0.1" x="59.3359" y="39.4023" width="1.61262" height="1.61262" fill="#D2ECFF"/>
<rect opacity="0.21" x="49.3047" y="14.2698" width="0.990016" height="0.990016" transform="rotate(45 49.3047 14.2698)" fill="#FF881F"/>
<defs>
<linearGradient id="paint0_linear" x1="49.3138" y1="22.8974" x2="38.6684" y2="62.6268" gradientUnits="userSpaceOnUse">
<stop stop-color="#FE871E"/>
<stop offset="1" stop-color="#FE6F1E"/>
</linearGradient>
</defs>
</svg>
