<svg width="49" height="48" viewBox="0 0 49 48" fill="none" xmlns="http://www.w3.org/2000/svg">
<path d="M23.0604 24.1626L22.2488 27.4913C23.3045 27.7351 26.4711 28.7905 26.877 26.8419C27.3643 24.893 24.1163 24.4061 23.0604 24.1626ZM24.1974 19.6151L23.4666 22.6196C24.3598 22.8634 26.9578 23.6753 27.364 21.9702C27.8513 20.1838 25.0906 19.7778 24.1974 19.6151Z" fill="#F6931A"/>
<path d="M27.6075 10.6021C20.2186 8.73463 12.7486 13.2818 10.8805 20.671C9.01295 28.06 13.5601 35.5303 20.9494 37.3981C28.3383 39.2656 35.8086 34.7185 37.6764 27.3292C39.5439 19.9403 34.9968 12.4702 27.6075 10.6021ZM30.3686 22.0513C30.1248 23.4318 29.394 24.0812 28.4197 24.2436C29.7999 24.9744 30.4496 26.0301 29.7999 27.8976C28.988 30.2527 27.0395 30.4148 24.4409 29.9278L23.7912 32.4447L22.3296 32.1202L22.8979 29.6029C22.492 29.5216 22.0861 29.4402 21.6802 29.2781L21.0304 31.7953L19.4878 31.3894L20.1372 28.8722L19.0816 28.6284L17.133 28.1414L17.9448 26.436C17.9448 26.436 19.0816 26.7609 19.0816 26.6798C19.4878 26.7609 19.7313 26.517 19.8123 26.3549L21.5177 19.534C21.5177 19.2095 21.4364 18.8032 20.7869 18.6411L19.6502 18.3973L20.0561 16.7733L22.1671 17.2606L23.1417 17.5041L23.7912 14.9869L25.3341 15.3931L24.7657 17.829C25.1717 17.9103 25.5776 17.9914 25.9835 18.1538L26.5522 15.7177L28.0948 16.1239L27.4451 18.6411C29.2315 19.2092 30.6124 20.1838 30.3686 22.0513Z" fill="#F6931A"/>
<rect x="0.777344" y="0.5" width="47" height="47" rx="7.5" stroke="#0A0D16" stroke-opacity="0.04"/>
</svg>
