<svg width="48" height="48" viewBox="0 0 48 48" fill="none" xmlns="http://www.w3.org/2000/svg">
<rect width="48" height="48" rx="8" fill="#010101"/>
<path d="M24.7412 25.8713H30.789C30.8504 25.8713 30.9092 25.8927 30.956 25.9328L30.976 25.9501L39.29 34.7131C39.449 34.8788 39.3434 35.158 39.1256 35.1754H33.0565C32.9953 35.1755 32.9361 35.1537 32.8895 35.1139L32.8695 35.0952L24.5555 26.3336C24.3965 26.1679 24.502 25.8887 24.7199 25.8713H30.789H24.7412ZM17.2103 25.8686H23.258C23.4825 25.8686 23.6001 26.1426 23.4585 26.3149L23.4438 26.3323L15.1298 35.0939C15.0879 35.1392 15.0309 35.1677 14.9695 35.1741H8.89501C8.67052 35.1741 8.55427 34.9015 8.69458 34.7278L8.70927 34.7104L17.0232 25.9488C17.0654 25.904 17.1223 25.876 17.1836 25.87L17.2103 25.8686ZM14.9454 12.8245C15.0055 12.8245 15.0657 12.8472 15.1111 12.8873L15.1311 12.906L23.4424 21.6676C23.6028 21.8333 23.4972 22.1125 23.2794 22.1299H17.2116C17.1504 22.13 17.0912 22.1082 17.0446 22.0684L17.0246 22.0511L8.70927 13.2881C8.55026 13.1238 8.65583 12.8432 8.87363 12.8258H14.9454V12.8245ZM39.1043 12.8245C39.3287 12.8245 39.445 13.0984 39.3047 13.2721L39.29 13.2881L30.976 22.0511C30.9339 22.0959 30.8769 22.1239 30.8157 22.1299H24.7412C24.5167 22.1299 24.3992 21.856 24.5408 21.6836L24.5555 21.6676L32.8695 12.906C32.9114 12.8606 32.9684 12.8321 33.0298 12.8258H39.1043V12.8245Z" fill="#2AFCFF"/>
</svg>
