<svg width="100" height="29" viewBox="0 0 100 29" fill="none" xmlns="http://www.w3.org/2000/svg">
<path d="M12.1301 14.6528L11.3659 17.7874C12.36 18.017 15.3419 19.0107 15.7242 17.1758C16.183 15.3406 13.1245 14.8821 12.1301 14.6528ZM13.2008 10.3706L12.5127 13.1998C13.3538 13.4294 15.8002 14.1939 16.1828 12.5883C16.6416 10.906 14.0419 10.5238 13.2008 10.3706Z" fill="#F6931A"/>
<path d="M16.4121 1.88333C9.4541 0.124754 2.41982 4.40668 0.660669 11.3649C-1.0979 18.3229 3.18402 25.3574 10.1423 27.1163C17.1002 28.8749 24.1348 24.5929 25.8936 17.6347C27.6522 10.6768 23.3703 3.64247 16.4121 1.88333ZM19.012 12.6646C18.7825 13.9646 18.0943 14.5761 17.1768 14.7291C18.4765 15.4173 19.0884 16.4113 18.4765 18.1699C17.712 20.3876 15.8771 20.5403 13.4301 20.0817L12.8183 22.4518L11.442 22.1462L11.9772 19.7758C11.5949 19.6992 11.2127 19.6226 10.8304 19.4699L10.2186 21.8403L8.76594 21.4581L9.37748 19.0877L8.3834 18.8581L6.5485 18.3995L7.31299 16.7936C7.31299 16.7936 8.3834 17.0995 8.3834 17.0232C8.76594 17.0995 8.99523 16.8699 9.07156 16.7173L10.6775 10.2942C10.6775 9.9886 10.6008 9.60606 9.98931 9.45339L8.9189 9.22381L9.30114 7.69453L11.289 8.1534L12.2067 8.38269L12.8183 6.01229L14.2712 6.39483L13.736 8.68861C14.1183 8.76523 14.5005 8.84156 14.8828 8.99452L15.4183 6.70046L16.8709 7.08299L16.2591 9.45339C17.9413 9.98831 19.2416 10.906 19.012 12.6646Z" fill="#F6931A"/>
<path d="M39.1172 22.5V5.46094H42.5859V19.6055H51.2109V22.5H39.1172ZM53.7188 22.5V5.32031H65.4961V8.22656H57.1875V12.293H64.3594V15.1992H57.1875V22.5H53.7188ZM67.4883 16.9102L70.8633 16.582C71.0664 17.7148 71.4766 18.5469 72.0938 19.0781C72.7188 19.6094 73.5586 19.875 74.6133 19.875C75.7305 19.875 76.5703 19.6406 77.1328 19.1719C77.7031 18.6953 77.9883 18.1406 77.9883 17.5078C77.9883 17.1016 77.8672 16.7578 77.625 16.4766C77.3906 16.1875 76.9766 15.9375 76.3828 15.7266C75.9766 15.5859 75.0508 15.3359 73.6055 14.9766C71.7461 14.5156 70.4414 13.9492 69.6914 13.2773C68.6367 12.332 68.1094 11.1797 68.1094 9.82031C68.1094 8.94531 68.3555 8.12891 68.8477 7.37109C69.3477 6.60547 70.0625 6.02344 70.9922 5.625C71.9297 5.22656 73.0586 5.02734 74.3789 5.02734C76.5352 5.02734 78.1562 5.5 79.2422 6.44531C80.3359 7.39063 80.9102 8.65234 80.9648 10.2305L77.4961 10.3828C77.3477 9.5 77.0273 8.86719 76.5352 8.48438C76.0508 8.09375 75.3203 7.89844 74.3438 7.89844C73.3359 7.89844 72.5469 8.10547 71.9766 8.51953C71.6094 8.78516 71.4258 9.14062 71.4258 9.58594C71.4258 9.99219 71.5977 10.3398 71.9414 10.6289C72.3789 10.9961 73.4414 11.3789 75.1289 11.7773C76.8164 12.1758 78.0625 12.5898 78.8672 13.0195C79.6797 13.4414 80.3125 14.0234 80.7656 14.7656C81.2266 15.5 81.457 16.4102 81.457 17.4961C81.457 18.4805 81.1836 19.4023 80.6367 20.2617C80.0898 21.1211 79.3164 21.7617 78.3164 22.1836C77.3164 22.5977 76.0703 22.8047 74.5781 22.8047C72.4062 22.8047 70.7383 22.3047 69.5742 21.3047C68.4102 20.2969 67.7148 18.832 67.4883 16.9102ZM82.6289 22.5L88.5 13.5352L83.1797 5.32031H87.2344L90.6797 10.8398L94.0547 5.32031H98.0742L92.7305 13.6641L98.6016 22.5H94.418L90.6094 16.5586L86.7891 22.5H82.6289Z" fill="#1E2846"/>
</svg>
