<svg width="63" height="12" viewBox="0 0 63 12" fill="none" xmlns="http://www.w3.org/2000/svg">
<path d="M11.9199 5.97558C11.9525 5.97558 11.9828 5.98822 12.0073 6.00989L12.0179 6.02072L16.3916 10.9234C16.4098 10.9441 16.4223 10.97 16.4277 10.9982C16.433 11.0264 16.4311 11.0557 16.422 11.0827C16.413 11.1098 16.3972 11.1334 16.3765 11.1509C16.3558 11.1684 16.331 11.1791 16.305 11.1817H13.1126C13.0804 11.1819 13.0492 11.1698 13.0243 11.1473L13.0145 11.1374L8.64079 6.23471C8.62238 6.21407 8.60968 6.18807 8.60415 6.15974C8.59863 6.13141 8.60052 6.10193 8.60961 6.07475C8.61869 6.04757 8.63459 6.0238 8.65544 6.00624C8.67629 5.98868 8.70124 5.97805 8.72736 5.97558H11.9199ZM4.77678 5.97467H7.95783C8.07629 5.97467 8.13756 6.12816 8.06404 6.22478L8.05586 6.2338L3.68212 11.1365C3.65964 11.1617 3.62986 11.1774 3.59798 11.1808H0.403041C0.376962 11.1806 0.35145 11.1723 0.329459 11.1568C0.307469 11.1413 0.2899 11.1193 0.278786 11.0932C0.267673 11.0671 0.26347 11.0381 0.266665 11.0095C0.269859 10.9809 0.28032 10.9539 0.296836 10.9316L0.305011 10.9225L4.67875 6.01981C4.70111 5.99427 4.73091 5.97829 4.7629 5.97467H4.77678ZM3.58492 0.230469C3.61758 0.230469 3.64781 0.243102 3.67314 0.26657L3.68295 0.275606L8.05586 5.17832C8.07427 5.19896 8.08697 5.22496 8.09249 5.25329C8.09802 5.28162 8.09612 5.31109 8.08704 5.33828C8.07796 5.36546 8.06206 5.38922 8.04121 5.40678C8.02035 5.42434 7.99541 5.43498 7.96928 5.43744H4.77676C4.74492 5.43749 4.71404 5.42537 4.68936 5.40314L4.67873 5.39231L0.304992 0.489592C0.286833 0.468919 0.274341 0.442987 0.268962 0.414794C0.263583 0.386601 0.265536 0.357301 0.274596 0.330285C0.283656 0.303268 0.299453 0.279639 0.320157 0.262132C0.340862 0.244625 0.365629 0.233955 0.391591 0.231357H3.5849L3.58492 0.230469ZM16.2936 0.230469C16.4121 0.230469 16.4733 0.383954 16.3998 0.480556L16.3916 0.489592L12.0179 5.39231C11.9955 5.41784 11.9657 5.43383 11.9337 5.43744H8.73879C8.71257 5.43745 8.68689 5.42919 8.66476 5.41365C8.64262 5.39811 8.62495 5.37592 8.61381 5.34969C8.60267 5.32345 8.59853 5.29425 8.60185 5.2655C8.60518 5.23675 8.61585 5.20965 8.63261 5.18736L8.64079 5.17832L13.0145 0.275606C13.037 0.250405 13.0668 0.234749 13.0987 0.231379H16.2936V0.230469Z" fill="#69DBED"/>
<path d="M25.6266 4.41097L28.2926 0.148438H30.019L26.5051 5.66376L30.1031 11.2708H28.3614L25.6266 6.93183L22.8766 11.2708H21.1426L24.7482 5.66376L21.2266 0.148438H22.9454L25.6266 4.41097Z" fill="black"/>
<path d="M33.701 0.148438L37.3372 9.22351L40.9733 0.148438H42.8754V11.2708H41.4087V6.93947L41.5462 2.26443L37.8948 11.2708H36.7719L33.1281 2.28734L33.2732 6.93947V11.2708H31.8066V0.148438H33.701Z" fill="black"/>
<path d="M51.7519 6.12974H46.9317V10.0714H52.531V11.2708H45.465V0.148438H52.4546V1.35539H46.9317V4.93042H51.7519V6.12974Z" fill="black"/>
<path d="M57.9852 4.41097L60.6512 0.148438H62.3776L58.8637 5.66376L62.4617 11.2708H60.72L57.9852 6.93183L55.2352 11.2708H53.5012L57.1068 5.66376L53.5852 0.148438H55.304L57.9852 4.41097Z" fill="black"/>
</svg>
