<svg width="107" height="106" viewBox="0 0 107 106" fill="none" xmlns="http://www.w3.org/2000/svg">
<g clip-path="url(#clip0)">
<path d="M42.6442 104.947C42.6442 104.947 19.9399 117.05 17.6141 124.67C12.8518 140.023 36.3313 186.307 36.3313 186.307H42.9765L41.869 126.575L72.9905 102.369L42.6442 104.947Z" fill="#3F4A70"/>
<path d="M89.3784 105.844C89.3784 105.844 90.8181 122.205 88.0492 126.464C83.3976 133.636 51.8332 140.024 51.8332 140.024L42.973 186.307C42.973 186.307 32.7836 140.248 38.7643 126.576C42.0869 118.956 64.7912 105.956 64.7912 105.956H89.3784V105.844Z" fill="#3F4970"/>
<g filter="url(#filter0_d)">
<path d="M51.9483 43.0858C51.9483 43.0858 25.1461 52.4994 29.3547 94.076C29.3547 94.076 35.3353 105.507 48.1826 105.955C60.9192 106.403 89.3827 105.955 89.3827 105.955L87.2784 78.2746H103.227C103.227 78.2746 102.23 44.0944 67.3429 40.7324C67.2322 40.7324 63.0236 40.7324 51.9483 43.0858Z" fill="#FE871E"/>
</g>
<path d="M56.9306 38.8248L53.7188 43.8678C53.7188 43.8678 61.5822 49.8073 66.4553 43.8678L62.1359 36.8076C62.1359 36.8076 56.9306 36.4714 56.9306 38.8248Z" fill="#FFC6A2"/>
<path d="M103.111 78.1621C103.111 78.1621 109.092 110.213 86.8305 105.842L53.7155 98.222L50.8359 91.9463L88.2703 92.1704L87.1628 78.1621H103.111Z" fill="#FFC6A2"/>
<path d="M25.9181 106.066L14.2891 80.8516H50.2837L63.3525 106.066H25.9181Z" fill="#F1F1F1"/>
<path d="M35.846 93.2724V90.5416L32.8633 91.0109V93.2724H35.846ZM36.2187 93.6458V96.4351L39.5741 96.9637V93.6458H36.2187ZM36.2187 93.2724H39.5741V89.9545L36.2187 90.4823V93.2724ZM35.846 93.6458H32.8633V95.9072L35.846 96.3766V93.6458Z" fill="#D9D9D9"/>
<path d="M68.5659 60.9615H60.7619V62.8456H63.7219V65.6147H65.6059V62.8456H68.5659V60.9615Z" fill="#FADBC4"/>
<path d="M64.6815 65.9109C62.233 65.9109 60.2478 65.5234 60.2478 65.0453C60.2478 64.5673 62.2329 64.1797 64.6815 64.1797C67.1301 64.1797 69.1152 64.5673 69.1152 65.0453C69.1152 65.5234 67.1301 65.9109 64.6815 65.9109ZM69.6599 65.1896C69.6599 64.5731 67.431 64.0734 64.6815 64.0734C61.9321 64.0734 59.7031 64.5731 59.7031 65.1896C59.7031 65.7325 61.4315 66.1848 63.7217 66.285V70.2602H65.6056V66.2866C67.9135 66.1895 69.6599 65.7353 69.6599 65.1896Z" fill="#FADBC4"/>
<path d="M87.275 78.1614C87.275 78.1614 84.6169 61.2394 81.6266 58.998H81.1836C81.1836 58.998 85.8352 71.2133 87.3857 79.17L87.275 78.1614Z" fill="#F36600"/>
<path d="M41.6484 80.8504C41.6484 80.8504 42.9775 61.7992 49.7334 59.6699C49.7334 59.6699 46.1893 62.6957 41.6484 80.8504Z" fill="#F36600"/>
<path d="M85.5048 104.609L80.4102 104.272L86.8338 105.729C109.095 110.212 103.114 78.0488 103.114 78.0488H101.675C101.785 78.1609 108.874 107.298 85.5048 104.609Z" fill="#FFBD94"/>
<path d="M56.375 39.7224C56.375 39.7224 60.2513 43.4206 63.0201 38.6017L61.0266 35.0156L56.9288 36.8087L56.375 39.7224Z" fill="#FFA05E"/>
<path d="M52.0583 29.0794C52.0583 29.0794 48.2927 25.7174 48.9572 18.4331L46.7422 14.0626C46.7422 14.0626 62.1368 11.8212 63.1336 14.0626C64.1304 16.3039 62.8013 26.9502 62.8013 26.9502C62.8013 26.9502 51.5046 27.1743 52.0583 29.0794Z" fill="#1E2846"/>
<path d="M51.3948 25.0436C51.3948 25.0436 52.7238 38.8277 59.1475 39.7242C59.1475 39.7242 65.5711 39.388 62.1378 22.6902L61.2518 18.4316L51.0625 20.5609L51.3948 25.0436Z" fill="#FFC5A2"/>
<path d="M32.788 12.604C28.3578 6.77651 18.3902 7.11271 10.416 13.2764C2.55255 19.44 -0.32697 29.1898 4.10314 35.0172C8.09024 40.1723 16.3967 40.5085 23.7063 36.1379C23.7063 36.2499 23.7063 36.2499 23.7063 36.2499C25.3676 38.1551 28.1365 36.6982 28.1365 36.6982C26.1429 36.362 26.6967 35.3534 26.2537 34.3448L26.3644 34.2328C34.4494 28.0691 37.2181 18.3193 32.788 12.604Z" fill="#FE871E"/>
<path fill-rule="evenodd" clip-rule="evenodd" d="M22.5991 18.4316C22.9882 18.4575 23.3013 18.7377 23.3519 19.0943L23.3507 28.4469C23.3314 28.8306 23.011 29.1399 22.6051 29.1737H14.1951C13.7783 29.1366 13.4531 28.8092 13.4531 28.4109V20.7571C13.5109 20.8775 13.623 20.9743 13.7699 21.0125L18.2158 22.1848C18.2712 22.1995 18.3254 22.2051 18.3796 22.2017C18.4338 22.204 18.4893 22.1995 18.5435 22.1848L22.9882 21.0125C23.2507 20.9439 23.4025 20.6896 23.329 20.4444C23.2556 20.1991 22.9833 20.0573 22.7208 20.126L18.3796 21.2702L14.0385 20.126C13.8 20.063 13.5519 20.1755 13.4543 20.3814V19.1438C13.482 18.7613 13.8097 18.4553 14.2204 18.4316H22.5991ZM20.2589 24.8166C20.2589 25.072 20.0372 25.2779 19.765 25.2779H18.8978V25.8111H19.7662C20.0396 25.8111 20.2601 26.0181 20.2601 26.2724C20.2601 26.5278 20.0384 26.7337 19.7662 26.7337H18.8978V27.3311C18.8978 27.5865 18.6761 27.7924 18.4039 27.7924C18.1305 27.7924 17.91 27.5854 17.91 27.3311V26.7337H17.0416C16.7682 26.7337 16.5477 26.5267 16.5477 26.2724C16.5477 26.017 16.7694 25.8111 17.0416 25.8111H17.91V25.2779H17.0416C16.7682 25.2779 16.5477 25.0708 16.5477 24.8166C16.5477 24.5612 16.7694 24.3553 17.0416 24.3553H17.7245L16.8079 23.4991C16.6152 23.3191 16.6152 23.0277 16.8079 22.8477C17.0006 22.6677 17.3126 22.6677 17.5053 22.8477L18.4159 23.6983L19.3422 22.8331C19.535 22.6531 19.8469 22.6531 20.0396 22.8331C20.2324 23.0131 20.2324 23.3045 20.0396 23.4845L19.1073 24.3553H19.765C20.0384 24.3553 20.2589 24.5623 20.2589 24.8166Z" fill="url(#paint0_linear)"/>
</g>
<defs>
<filter id="filter0_d" x="24.9062" y="40.7324" width="82.3205" height="73.4218" filterUnits="userSpaceOnUse" color-interpolation-filters="sRGB">
<feFlood flood-opacity="0" result="BackgroundImageFix"/>
<feColorMatrix in="SourceAlpha" type="matrix" values="0 0 0 0 0 0 0 0 0 0 0 0 0 0 0 0 0 0 127 0"/>
<feOffset dy="4"/>
<feGaussianBlur stdDeviation="2"/>
<feColorMatrix type="matrix" values="0 0 0 0 0 0 0 0 0 0 0 0 0 0 0 0 0 0 0.25 0"/>
<feBlend mode="normal" in2="BackgroundImageFix" result="effect1_dropShadow"/>
<feBlend mode="normal" in="SourceGraphic" in2="effect1_dropShadow" result="shape"/>
</filter>
<linearGradient id="paint0_linear" x1="18.4025" y1="18.4316" x2="18.4025" y2="29.1737" gradientUnits="userSpaceOnUse">
<stop stop-color="white"/>
<stop offset="1" stop-color="#FFD9BD"/>
</linearGradient>
<clipPath id="clip0">
<rect x="0.5" width="106" height="106" fill="white"/>
</clipPath>
</defs>
</svg>
