<svg viewBox="0 0 106 106" fill="none" xmlns="http://www.w3.org/2000/svg">
<g clip-path="url(#clip0)">
<path d="M42.1442 104.947C42.1442 104.947 19.4399 117.05 17.1141 124.67C12.3518 140.023 35.8313 186.307 35.8313 186.307H42.4765L41.369 126.575L72.4905 102.369L42.1442 104.947Z" fill="#3F4A70"/>
<path d="M88.8803 105.844C88.8803 105.844 90.32 122.205 87.5512 126.464C82.8996 133.636 51.3352 140.024 51.3352 140.024L42.475 186.307C42.475 186.307 32.2856 140.248 38.2662 126.576C41.5888 118.956 64.2931 105.956 64.2931 105.956H88.8803V105.844Z" fill="#3F4970"/>
<g filter="url(#filter0_d)">
<path d="M51.4464 43.0858C51.4464 43.0858 24.6441 52.4994 28.8527 94.076C28.8527 94.076 34.8333 105.507 47.6807 105.955C60.4172 106.403 88.8808 105.955 88.8808 105.955L86.7765 78.2746H102.725C102.725 78.2746 101.728 44.0944 66.841 40.7324C66.7302 40.7324 62.5216 40.7324 51.4464 43.0858Z" fill="#FF6F1E"/>
</g>
<path d="M56.4306 38.8248L53.2188 43.8678C53.2188 43.8678 61.0822 49.8073 65.9553 43.8678L61.6359 36.8076C61.6359 36.8076 56.4306 36.4714 56.4306 38.8248Z" fill="#FFC6A2"/>
<path d="M102.613 78.1621C102.613 78.1621 108.594 110.213 86.3325 105.842L53.2175 98.222L50.3379 91.9463L87.7723 92.1704L86.6648 78.1621H102.613Z" fill="#FFC6A2"/>
<path d="M25.42 106.066L13.791 80.8516H49.7856L62.8544 106.066H25.42Z" fill="#F1F1F1"/>
<path d="M39.6468 93.7083C39.6766 93.7083 39.7042 93.7199 39.7266 93.7399L39.7363 93.75L43.7298 98.2795C43.7464 98.2986 43.7578 98.3226 43.7627 98.3486C43.7676 98.3747 43.7658 98.4017 43.7575 98.4267C43.7493 98.4517 43.7348 98.4735 43.7159 98.4897C43.697 98.5059 43.6744 98.5157 43.6507 98.5181H40.7358C40.7065 98.5183 40.678 98.5071 40.6552 98.4864L40.6463 98.4772L36.6528 93.9477C36.636 93.9286 36.6244 93.9046 36.6194 93.8784C36.6143 93.8522 36.6161 93.825 36.6244 93.7999C36.6327 93.7748 36.6472 93.7528 36.6662 93.7366C36.6853 93.7204 36.708 93.7105 36.7319 93.7083H39.6468ZM33.1248 93.7074H36.0293C36.1374 93.7074 36.1934 93.8492 36.1262 93.9385L36.1188 93.9468L32.1253 98.4764C32.1048 98.4997 32.0776 98.5141 32.0485 98.5173H29.1313C29.1075 98.5171 29.0842 98.5095 29.0641 98.4952C29.0441 98.4809 29.028 98.4605 29.0179 98.4364C29.0077 98.4123 29.0039 98.3855 29.0068 98.359C29.0097 98.3326 29.0193 98.3076 29.0344 98.287L29.0418 98.2787L33.0353 93.7491C33.0557 93.7255 33.0829 93.7108 33.1121 93.7074H33.1248ZM32.0366 88.4004C32.0664 88.4004 32.094 88.4121 32.1171 88.4337L32.1261 88.4421L36.1188 92.9717C36.1356 92.9907 36.1472 93.0148 36.1522 93.0409C36.1573 93.0671 36.1555 93.0943 36.1472 93.1195C36.1389 93.1446 36.1244 93.1665 36.1054 93.1827C36.0863 93.199 36.0636 93.2088 36.0397 93.2111H33.1248C33.0957 93.2111 33.0675 93.1999 33.045 93.1794L33.0353 93.1694L29.0418 88.6398C29.0252 88.6207 29.0138 88.5967 29.0089 88.5707C29.004 88.5446 29.0058 88.5176 29.0141 88.4926C29.0223 88.4676 29.0367 88.4458 29.0557 88.4296C29.0746 88.4135 29.0972 88.4036 29.1209 88.4012H32.0365L32.0366 88.4004ZM43.6403 88.4004C43.7484 88.4004 43.8044 88.5422 43.7373 88.6314L43.7298 88.6398L39.7363 93.1694C39.7159 93.193 39.6887 93.2077 39.6595 93.2111H36.7423C36.7184 93.2111 36.6949 93.2034 36.6747 93.1891C36.6545 93.1747 36.6384 93.1542 36.6282 93.13C36.618 93.1058 36.6143 93.0788 36.6173 93.0522C36.6203 93.0257 36.6301 93.0006 36.6454 92.98L36.6528 92.9717L40.6463 88.4421C40.6668 88.4188 40.694 88.4043 40.7231 88.4012H43.6403V88.4004Z" fill="#FF6F1E"/>
<path d="M86.775 78.1614C86.775 78.1614 84.1169 61.2394 81.1266 58.998H80.6836C80.6836 58.998 85.3352 71.2133 86.8857 79.17L86.775 78.1614Z" fill="#F36600"/>
<path d="M41.1484 80.8504C41.1484 80.8504 42.4775 61.7992 49.2334 59.6699C49.2334 59.6699 45.6893 62.6957 41.1484 80.8504Z" fill="#F36600"/>
<path d="M85.0048 104.609L79.9102 104.272L86.3338 105.729C108.595 110.212 102.614 78.0488 102.614 78.0488H101.175C101.285 78.1609 108.374 107.298 85.0048 104.609Z" fill="#FFBD94"/>
<path d="M55.877 39.7224C55.877 39.7224 59.7533 43.4206 62.5221 38.6017L60.5286 35.0156L56.4307 36.8087L55.877 39.7224Z" fill="#FFA05E"/>
<path d="M51.5564 29.0794C51.5564 29.0794 47.7908 25.7174 48.4553 18.4331L46.2402 14.0626C46.2402 14.0626 61.6349 11.8212 62.6316 14.0626C63.6284 16.3039 62.2994 26.9502 62.2994 26.9502C62.2994 26.9502 51.0026 27.1743 51.5564 29.0794Z" fill="#212941"/>
<path d="M50.8928 25.0436C50.8928 25.0436 52.2218 38.8277 58.6455 39.7242C58.6455 39.7242 65.0692 39.388 61.6358 22.6902L60.7498 18.4316L50.5605 20.5609L50.8928 25.0436Z" fill="#FFC5A2"/>
<path d="M32.288 12.604C27.8578 6.77651 17.8902 7.11271 9.91599 13.2764C2.05255 19.44 -0.82697 29.1898 3.60314 35.0172C7.59024 40.1723 15.8967 40.5085 23.2063 36.1379C23.2063 36.2499 23.2063 36.2499 23.2063 36.2499C24.8676 38.1551 27.6365 36.6982 27.6365 36.6982C25.6429 36.362 26.1967 35.3534 25.7537 34.3448L25.8644 34.2328C33.9494 28.0691 36.7181 18.3193 32.288 12.604Z" fill="#FF6F1E"/>
<path fill-rule="evenodd" clip-rule="evenodd" d="M22.0971 18.4316C22.4862 18.4575 22.7994 18.7377 22.85 19.0943L22.8488 28.4469C22.8295 28.8306 22.5091 29.1399 22.1032 29.1737H13.6932C13.2764 29.1366 12.9512 28.8092 12.9512 28.4109V20.7571C13.009 20.8775 13.121 20.9743 13.268 21.0125L17.7139 22.1848C17.7693 22.1995 17.8235 22.2051 17.8777 22.2017C17.9319 22.204 17.9873 22.1995 18.0415 22.1848L22.4862 21.0125C22.7488 20.9439 22.9006 20.6896 22.8271 20.4444C22.7536 20.1991 22.4814 20.0573 22.2188 20.126L17.8777 21.2702L13.5366 20.126C13.2981 20.063 13.0499 20.1755 12.9524 20.3814V19.1438C12.9801 18.7613 13.3077 18.4553 13.7185 18.4316H22.0971ZM19.7569 24.8166C19.7569 25.072 19.5353 25.2779 19.2631 25.2779H18.3958V25.8111H19.2643C19.5377 25.8111 19.7581 26.0181 19.7581 26.2724C19.7581 26.5278 19.5365 26.7337 19.2643 26.7337H18.3958V27.3311C18.3958 27.5865 18.1742 27.7924 17.9019 27.7924C17.6285 27.7924 17.4081 27.5854 17.4081 27.3311V26.7337H16.5396C16.2662 26.7337 16.0458 26.5267 16.0458 26.2724C16.0458 26.017 16.2674 25.8111 16.5396 25.8111H17.4081V25.2779H16.5396C16.2662 25.2779 16.0458 25.0708 16.0458 24.8166C16.0458 24.5612 16.2674 24.3553 16.5396 24.3553H17.2226L16.3059 23.4991C16.1132 23.3191 16.1132 23.0277 16.3059 22.8477C16.4987 22.6677 16.8106 22.6677 17.0034 22.8477L17.914 23.6983L18.8403 22.8331C19.033 22.6531 19.345 22.6531 19.5377 22.8331C19.7304 23.0131 19.7304 23.3045 19.5377 23.4845L18.6054 24.3553H19.2631C19.5365 24.3553 19.7569 24.5623 19.7569 24.8166Z" fill="url(#paint0_linear)"/>
</g>
<defs>
<filter id="filter0_d" x="24.4043" y="40.7324" width="82.3205" height="73.4218" filterUnits="userSpaceOnUse" color-interpolation-filters="sRGB">
<feFlood flood-opacity="0" result="BackgroundImageFix"/>
<feColorMatrix in="SourceAlpha" type="matrix" values="0 0 0 0 0 0 0 0 0 0 0 0 0 0 0 0 0 0 127 0"/>
<feOffset dy="4"/>
<feGaussianBlur stdDeviation="2"/>
<feColorMatrix type="matrix" values="0 0 0 0 0 0 0 0 0 0 0 0 0 0 0 0 0 0 0.25 0"/>
<feBlend mode="normal" in2="BackgroundImageFix" result="effect1_dropShadow"/>
<feBlend mode="normal" in="SourceGraphic" in2="effect1_dropShadow" result="shape"/>
</filter>
<linearGradient id="paint0_linear" x1="17.9006" y1="18.4316" x2="17.9006" y2="29.1737" gradientUnits="userSpaceOnUse">
<stop stop-color="white"/>
<stop offset="1" stop-color="#FFD9BD"/>
</linearGradient>
<clipPath id="clip0">
<rect width="106" height="106" fill="white"/>
</clipPath>
</defs>
</svg>
