<svg width="322" height="271" viewBox="0 0 322 271" fill="none" xmlns="http://www.w3.org/2000/svg">
<g clip-path="url(#clip0)">
<path fill-rule="evenodd" clip-rule="evenodd" d="M313.45 103.53C317.395 105.601 319.373 109.974 318.253 113.929L275.005 211.511C273.03 215.425 268.252 217.17 263.855 215.643L175.982 176.712C171.799 174.395 169.914 169.474 171.755 165.318L207.137 85.4567C207.184 86.9804 207.907 88.5085 209.266 89.5879L250.3 122.401C250.812 122.81 251.352 123.12 251.934 123.335C252.49 123.61 253.09 123.819 253.724 123.917L305.584 132.26C308.645 132.76 311.406 130.809 311.772 127.91C312.139 125.011 309.949 122.272 306.889 121.772L256.24 113.615L216.171 81.5809C213.97 79.8195 210.857 79.8448 208.886 81.5414L214.607 68.6283C216.665 64.7653 221.503 63.0889 225.904 64.7437L313.45 103.53ZM259.482 159.319C258.301 161.983 255.034 163.106 252.189 161.846L243.128 157.831L240.662 163.395L249.737 167.416C252.594 168.681 253.94 171.862 252.764 174.515C251.584 177.179 248.316 178.302 245.472 177.042L236.398 173.021L233.636 179.255C232.455 181.92 229.188 183.042 226.343 181.782C223.486 180.516 222.14 177.336 223.316 174.683L226.077 168.449L217.003 164.429C214.146 163.163 212.8 159.983 213.975 157.33C215.156 154.665 218.423 153.543 221.268 154.803L230.342 158.823L232.807 153.259L223.733 149.238C220.876 147.973 219.53 144.792 220.705 142.139C221.886 139.475 225.153 138.352 227.998 139.612L235.134 142.774L229.514 129.597C228.332 126.827 229.679 123.786 232.525 122.8C235.371 121.814 238.631 123.258 239.812 126.029L245.395 139.119L259.073 134.379C261.919 133.393 265.179 134.837 266.36 137.608C267.542 140.378 266.195 143.419 263.349 144.405L249.582 149.175L256.454 152.22C259.311 153.485 260.657 156.666 259.482 159.319Z" fill="url(#paint0_linear)"/>
<path fill-rule="evenodd" clip-rule="evenodd" d="M55.3714 118.571C57.7588 118.099 60.0988 119.279 60.9792 121.345L76.0599 177.656C76.5626 179.997 75.13 182.377 72.7371 183.236L22.0333 196.822C19.4608 197.272 16.9719 195.826 16.3293 193.428L3.98203 147.347C4.52482 147.979 5.35628 148.38 6.30396 148.373L34.9995 148.249C35.3571 148.248 35.693 148.194 36.0143 148.086C36.3448 148.012 36.6716 147.895 36.9748 147.72L61.8806 133.481C63.353 132.644 63.8579 130.868 63.0192 129.51C62.1805 128.152 60.3106 127.738 58.8382 128.576L34.5115 142.477L6.4932 142.602C4.95367 142.608 3.63918 143.686 3.38309 145.083L1.38661 137.632C0.936548 135.284 2.41816 132.912 4.85641 132.107L55.3714 118.571ZM51.5626 160.793C51.9746 162.331 50.9705 163.929 49.3293 164.368L44.1006 165.769L44.9609 168.98L50.1969 167.577C51.8454 167.135 53.5083 168.026 53.9185 169.557C54.3305 171.094 53.3264 172.692 51.6852 173.131L46.4492 174.534L47.4129 178.131C47.8249 179.669 46.8209 181.266 45.1796 181.706C43.5311 182.148 41.8682 181.258 41.458 179.727L40.4943 176.13L35.2583 177.533C33.6098 177.975 31.9469 177.085 31.5367 175.554C31.1247 174.016 32.1288 172.418 33.77 171.979L39.006 170.576L38.1457 167.365L32.9097 168.768C31.2613 169.21 29.5983 168.319 29.1882 166.789C28.7761 165.251 29.7802 163.653 31.4215 163.214L35.5391 162.11L28.6314 158.436C27.1791 157.664 26.709 155.91 27.5805 154.515C28.4521 153.119 30.333 152.615 31.7853 153.388L38.6475 157.038L42.8364 150.332C43.7079 148.937 45.5888 148.433 47.0411 149.206C48.4934 149.978 48.9635 151.732 48.092 153.128L43.8759 159.876L47.841 158.814C49.4895 158.372 51.1524 159.263 51.5626 160.793Z" fill="url(#paint1_linear)"/>
<path opacity="0.2" fill-rule="evenodd" clip-rule="evenodd" d="M81.804 71.2048C82.738 71.0198 83.6536 71.4817 83.998 72.2899L89.8982 94.3211C90.0949 95.237 89.5344 96.1683 88.5982 96.5043L68.7607 101.82C67.7542 101.996 66.7804 101.43 66.529 100.492L61.6982 82.4632C61.9106 82.7102 62.2359 82.8673 62.6067 82.8645L73.8336 82.816C73.9735 82.8154 74.1049 82.7944 74.2307 82.7522C74.3599 82.7232 74.4878 82.6776 74.6064 82.6089L84.3506 77.0382C84.9267 76.7106 85.1242 76.0158 84.7961 75.4845C84.468 74.9532 83.7364 74.7913 83.1603 75.1189L73.6427 80.5579L62.6807 80.6064C62.0784 80.6088 61.5641 81.0306 61.4639 81.5773L60.6828 78.6621C60.5067 77.7436 61.0864 76.8157 62.0403 76.5004L81.804 71.2048ZM80.3138 87.7239C80.475 88.3255 80.0822 88.9505 79.44 89.1226L77.3944 89.6707L77.7309 90.9269L79.7795 90.378C80.4244 90.2052 81.075 90.5535 81.2355 91.1524C81.3967 91.754 81.0039 92.379 80.3618 92.5511L78.3132 93.1L78.6903 94.5072C78.8515 95.1088 78.4586 95.7338 77.8165 95.9059C77.1716 96.0787 76.5209 95.7304 76.3605 95.1315L75.9834 93.7242L73.9349 94.2731C73.2899 94.446 72.6393 94.0977 72.4788 93.4987C72.3176 92.8972 72.7105 92.2721 73.3526 92.1L75.4011 91.5511L75.0645 90.295L73.016 90.8439C72.371 91.0167 71.7204 90.6684 71.56 90.0695C71.3988 89.4679 71.7916 88.8428 72.4337 88.6708L74.0447 88.2391L71.3421 86.8017C70.7739 86.4995 70.59 85.8131 70.931 85.2673C71.272 84.7215 72.0079 84.5243 72.5761 84.8265L75.2609 86.2545L76.8997 83.6311C77.2407 83.0852 77.9766 82.8881 78.5448 83.1903C79.113 83.4925 79.2969 84.1789 78.9559 84.7247L77.3064 87.3651L78.8578 86.9495C79.5027 86.7766 80.1533 87.125 80.3138 87.7239Z" fill="url(#paint2_linear)"/>
<g opacity="0.2" filter="url(#filter0_f)">
<path fill-rule="evenodd" clip-rule="evenodd" d="M222.708 2.32626C221.536 2.09413 220.387 2.67391 219.954 3.68819L212.549 31.3398C212.302 32.4893 213.006 33.6582 214.181 34.08L239.079 40.7514C240.342 40.9723 241.564 40.2624 241.88 39.0849L247.943 16.4568C247.676 16.7668 247.268 16.964 246.803 16.9605L232.712 16.8996C232.536 16.8989 232.371 16.8725 232.213 16.8195C232.051 16.7832 231.891 16.7259 231.742 16.6397L219.512 9.64791C218.789 9.23671 218.541 8.3646 218.953 7.69777C219.364 7.03095 220.283 6.8278 221.006 7.239L232.951 14.0654L246.71 14.1264C247.466 14.1293 248.111 14.6588 248.237 15.3449L249.217 11.6861C249.438 10.5332 248.711 9.36856 247.514 8.97287L222.708 2.32626ZM224.578 23.0596C224.376 23.8146 224.869 24.5991 225.675 24.8151L228.243 25.5031L227.82 27.0797L225.249 26.3907C224.44 26.1738 223.623 26.611 223.422 27.3627C223.219 28.1178 223.712 28.9023 224.518 29.1182L227.089 29.8072L226.616 31.5734C226.414 32.3284 226.907 33.1129 227.713 33.3289C228.522 33.5458 229.339 33.1086 229.54 32.3569L230.014 30.5907L232.585 31.2796C233.394 31.4965 234.211 31.0594 234.412 30.3076C234.614 29.5526 234.121 28.7681 233.315 28.5521L230.744 27.8632L231.167 26.2866L233.738 26.9755C234.547 27.1924 235.364 26.7553 235.565 26.0035C235.768 25.2485 235.275 24.464 234.469 24.248L232.447 23.7063L235.839 21.9022C236.552 21.5229 236.783 20.6614 236.355 19.9763C235.927 19.2912 235.003 19.0437 234.29 19.4231L230.92 21.2153L228.863 17.9226C228.435 17.2376 227.512 16.9901 226.799 17.3694C226.086 17.7487 225.855 18.6102 226.283 19.2953L228.353 22.6093L226.406 22.0876C225.596 21.8707 224.78 22.3079 224.578 23.0596Z" fill="url(#paint3_linear)"/>
</g>
<path d="M123.417 101.699C123.417 101.699 51.5186 126.859 62.8083 237.985C62.8083 237.985 78.8517 268.537 113.315 269.736C147.482 270.934 223.837 269.736 223.837 269.736L218.192 195.751H260.974C260.974 195.751 258.3 104.395 164.714 95.4087C164.417 95.4087 153.127 95.4087 123.417 101.699Z" fill="url(#paint4_linear)"/>
<path d="M165.912 150.254H144.76V155.361H152.783V162.866H157.889V155.361H165.912V150.254Z" fill="#FADBC4"/>
<path d="M155.384 163.669C148.747 163.669 143.367 162.618 143.367 161.323C143.367 160.027 148.747 158.977 155.384 158.977C162.02 158.977 167.4 160.027 167.4 161.323C167.4 162.618 162.02 163.669 155.384 163.669ZM168.877 161.714C168.877 160.043 162.836 158.689 155.384 158.689C147.932 158.689 141.891 160.043 141.891 161.714C141.891 163.185 146.575 164.411 152.782 164.683V175.457H157.888V164.687C164.143 164.424 168.877 163.193 168.877 161.714Z" fill="#FADBC4"/>
<path d="M135.749 88.786L127.133 102.265C127.133 102.265 148.227 118.14 161.299 102.265L149.712 83.3945C149.712 83.3945 135.749 82.4959 135.749 88.786Z" fill="#F0BA98"/>
<path d="M260.672 195.454C260.672 195.454 276.716 281.119 216.999 269.438L128.166 249.07L120.441 232.296L220.861 232.895L217.89 195.454H260.672Z" fill="#F0BA98"/>
<path d="M63.1875 270.034C57.3427 270.034 52.0302 266.639 49.5751 261.334L23.7209 205.479C23.1074 204.154 24.0753 202.639 25.5359 202.639H117.75C118.496 202.639 119.18 203.054 119.524 203.716L154.021 270.034H63.1875Z" fill="#F1F1F1"/>
<path d="M82.6281 233.146V224.61L73.3047 226.077V233.146H82.6281ZM83.793 234.313V243.031L94.2812 244.684V234.313H83.793ZM83.793 233.146H94.2812V222.774L83.793 224.424V233.146ZM82.6281 234.313H73.3047V241.381L82.6281 242.849V234.313Z" fill="#D9D9D9"/>
<path d="M218.188 195.451C218.188 195.451 211.058 150.222 203.036 144.231H201.848C201.848 144.231 214.326 176.88 218.485 198.147L218.188 195.451Z" fill="#FA6A1C"/>
<path d="M95.793 202.637C95.793 202.637 99.3582 151.717 117.481 146.026C117.481 146.026 107.974 154.113 95.793 202.637Z" fill="#FA6A1C"/>
<path d="M213.436 266.649L199.77 265.751L217.001 269.645C276.718 281.626 260.675 195.661 260.675 195.661H256.813C257.11 195.96 276.124 273.838 213.436 266.649Z" fill="#E6B393"/>
<path d="M133.246 92.729C133.246 92.729 146.319 102.609 153.746 89.729L147.783 80.1313L137.746 85.729L133.246 92.729Z" fill="#E4AF8E"/>
<path d="M124.007 65.5286C124.007 65.5286 113.905 56.5426 115.688 37.0731L109.746 25.3915C109.746 25.3915 151.043 19.4009 153.717 25.3915C156.391 31.3821 152.826 59.8375 152.826 59.8375C152.826 59.8375 122.521 60.4365 124.007 65.5286Z" fill="#201C13"/>
<path d="M121.602 53.4794C121.602 53.4794 125.167 90.3217 142.399 92.718C142.399 92.718 159.631 91.8194 150.421 47.1893L148.044 35.8071L120.711 41.4982L121.602 53.4794Z" fill="#F0BA98"/>
<path d="M222.746 235.729C222.746 253.403 208.42 267.729 190.746 267.729C173.073 267.729 158.746 253.403 158.746 235.729C158.746 218.056 173.073 203.729 190.746 203.729C208.42 203.729 222.746 218.056 222.746 235.729Z" fill="#FF974B"/>
<path d="M196.192 241.455C196.085 241.823 195.909 242.166 195.672 242.464C195.435 242.761 195.142 243.008 194.811 243.19C194.481 243.373 194.118 243.488 193.744 243.528C193.37 243.567 192.992 243.531 192.632 243.42L185.298 241.191L186.932 235.594L194.266 237.823H194.266C195.778 238.282 196.642 239.912 196.192 241.455ZM198.665 229.984C198.845 230.321 198.958 230.691 198.996 231.072C199.035 231.454 198.999 231.839 198.891 232.207C198.441 233.75 196.843 234.631 195.332 234.172H195.331L187.997 231.943L189.631 226.346L196.965 228.574C197.326 228.683 197.662 228.863 197.954 229.105C198.245 229.347 198.487 229.646 198.665 229.984ZM201.948 228.171C201.11 226.59 199.719 225.437 198.031 224.924L197.06 224.629L198.419 219.974L194.933 218.915L193.575 223.57L190.599 222.665L191.958 218.011L191.123 217.757L187.74 216.729L186.43 221.216L182.308 219.963L181.145 223.949L185.267 225.202L181.032 239.712L176.91 238.459L175.746 242.446L179.868 243.699L178.763 247.485L179.598 247.739L182.98 248.767L184.135 244.812L187.118 245.719L185.963 249.674L189.435 250.729L190.589 246.774L191.566 247.071C192.18 247.258 192.817 247.353 193.458 247.354C194.539 247.354 195.609 247.08 196.587 246.54C198.136 245.685 199.266 244.265 199.769 242.542C200.298 240.73 200.037 238.868 199.196 237.336C200.723 236.523 201.939 235.107 202.469 233.294C202.972 231.571 202.787 229.752 201.948 228.171Z" fill="url(#paint5_linear)"/>
<g clip-path="url(#clip1)">
<path d="M154.682 249.986C154.682 259.329 147.109 266.902 137.767 266.902C128.425 266.902 120.852 259.329 120.852 249.986C120.852 240.644 128.425 233.071 137.767 233.071C147.109 233.071 154.682 240.644 154.682 249.986Z" fill="#113CD6"/>
<path d="M145.705 241.601H129.688V245.468H135.763V251.151H139.63V245.468H145.705V241.601Z" fill="white"/>
<path d="M137.734 251.759C132.708 251.759 128.634 250.964 128.634 249.982C128.634 249.001 132.708 248.206 137.734 248.206C142.759 248.206 146.833 249.001 146.833 249.982C146.833 250.964 142.759 251.759 137.734 251.759ZM147.951 250.279C147.951 249.013 143.377 247.988 137.734 247.988C132.091 247.988 127.516 249.013 127.516 250.279C127.516 251.393 131.063 252.321 135.764 252.527V260.686H139.63V252.53C144.367 252.331 147.951 251.399 147.951 250.279Z" fill="white"/>
</g>
</g>
<defs>
<filter id="filter0_f" x="206.969" y="-3.271" width="47.8155" height="49.611" filterUnits="userSpaceOnUse" color-interpolation-filters="sRGB">
<feFlood flood-opacity="0" result="BackgroundImageFix"/>
<feBlend mode="normal" in="SourceGraphic" in2="BackgroundImageFix" result="shape"/>
<feGaussianBlur stdDeviation="2.5" result="effect1_foregroundBlur"/>
</filter>
<linearGradient id="paint0_linear" x1="269.601" y1="84.1033" x2="219.944" y2="196.189" gradientUnits="userSpaceOnUse">
<stop stop-color="white"/>
<stop offset="1" stop-color="#F9831F" stop-opacity="0.54"/>
</linearGradient>
<linearGradient id="paint1_linear" x1="30.0703" y1="125.351" x2="47.3998" y2="190.025" gradientUnits="userSpaceOnUse">
<stop stop-color="white"/>
<stop offset="1" stop-color="#FE871E" stop-opacity="0.46"/>
</linearGradient>
<linearGradient id="paint2_linear" x1="71.9051" y1="73.8571" x2="78.6851" y2="99.1605" gradientUnits="userSpaceOnUse">
<stop stop-color="white"/>
<stop offset="1" stop-color="#FF7223"/>
</linearGradient>
<linearGradient id="paint3_linear" x1="235.132" y1="5.6553" x2="226.623" y2="37.4138" gradientUnits="userSpaceOnUse">
<stop stop-color="white"/>
<stop offset="1" stop-color="#FF7223"/>
</linearGradient>
<linearGradient id="paint4_linear" x1="92.3859" y1="130.532" x2="161.039" y2="270.391" gradientUnits="userSpaceOnUse">
<stop stop-color="#FFAF37"/>
<stop offset="1" stop-color="#FF5823"/>
</linearGradient>
<linearGradient id="paint5_linear" x1="189.246" y1="216.729" x2="189.246" y2="250.729" gradientUnits="userSpaceOnUse">
<stop stop-color="white"/>
<stop offset="1" stop-color="#FFC296"/>
</linearGradient>
<clipPath id="clip0">
<rect width="321" height="270" fill="white" transform="translate(0.554688 0.445801)"/>
</clipPath>
<clipPath id="clip1">
<rect width="34" height="34" fill="white" transform="translate(120.711 232.993)"/>
</clipPath>
</defs>
</svg>
