<svg width="322" height="271" viewBox="0 0 322 271" fill="none" xmlns="http://www.w3.org/2000/svg">
<g clip-path="url(#clip0)">
<path fill-rule="evenodd" clip-rule="evenodd" d="M313.45 103.53C317.395 105.601 319.373 109.974 318.253 113.929L275.005 211.511C273.03 215.425 268.252 217.17 263.855 215.643L175.982 176.712C171.799 174.395 169.914 169.474 171.755 165.318L207.137 85.4567C207.184 86.9804 207.907 88.5085 209.266 89.5879L250.3 122.401C250.812 122.81 251.352 123.12 251.934 123.335C252.49 123.61 253.09 123.819 253.724 123.917L305.584 132.26C308.645 132.76 311.406 130.809 311.772 127.91C312.139 125.011 309.949 122.272 306.889 121.772L256.24 113.615L216.171 81.5809C213.97 79.8195 210.857 79.8448 208.886 81.5414L214.607 68.6283C216.665 64.7653 221.503 63.0889 225.904 64.7437L313.45 103.53ZM259.482 159.319C258.301 161.983 255.034 163.106 252.189 161.846L243.128 157.831L240.662 163.395L249.737 167.416C252.594 168.681 253.94 171.862 252.764 174.515C251.584 177.179 248.316 178.302 245.472 177.042L236.398 173.021L233.636 179.255C232.455 181.92 229.188 183.042 226.343 181.782C223.486 180.516 222.14 177.336 223.316 174.683L226.077 168.449L217.003 164.429C214.146 163.163 212.8 159.983 213.975 157.33C215.156 154.665 218.423 153.543 221.268 154.803L230.342 158.823L232.807 153.259L223.733 149.238C220.876 147.973 219.53 144.792 220.705 142.139C221.886 139.475 225.153 138.352 227.998 139.612L235.134 142.774L229.514 129.597C228.332 126.827 229.679 123.786 232.525 122.8C235.371 121.814 238.631 123.258 239.812 126.029L245.395 139.119L259.073 134.379C261.919 133.393 265.179 134.837 266.36 137.608C267.542 140.378 266.195 143.419 263.349 144.405L249.582 149.175L256.454 152.22C259.311 153.485 260.657 156.666 259.482 159.319Z" fill="url(#paint0_linear)"/>
<path fill-rule="evenodd" clip-rule="evenodd" d="M55.3714 118.571C57.7588 118.099 60.0988 119.279 60.9792 121.345L76.0599 177.656C76.5626 179.997 75.13 182.377 72.7371 183.236L22.0333 196.822C19.4608 197.272 16.9719 195.826 16.3293 193.428L3.98203 147.347C4.52482 147.979 5.35628 148.38 6.30396 148.373L34.9995 148.249C35.3571 148.248 35.693 148.194 36.0143 148.086C36.3448 148.012 36.6716 147.895 36.9748 147.72L61.8806 133.481C63.353 132.644 63.8579 130.868 63.0192 129.51C62.1805 128.152 60.3106 127.738 58.8382 128.576L34.5115 142.477L6.4932 142.602C4.95367 142.608 3.63918 143.686 3.38309 145.083L1.38661 137.632C0.936548 135.284 2.41816 132.912 4.85641 132.107L55.3714 118.571ZM51.5626 160.793C51.9746 162.331 50.9705 163.929 49.3293 164.368L44.1006 165.769L44.9609 168.98L50.1969 167.577C51.8454 167.135 53.5083 168.026 53.9185 169.557C54.3305 171.094 53.3264 172.692 51.6852 173.131L46.4492 174.534L47.4129 178.131C47.8249 179.669 46.8209 181.266 45.1796 181.706C43.5311 182.148 41.8682 181.258 41.458 179.727L40.4943 176.13L35.2583 177.533C33.6098 177.975 31.9469 177.085 31.5367 175.554C31.1247 174.016 32.1288 172.418 33.77 171.979L39.006 170.576L38.1457 167.365L32.9097 168.768C31.2613 169.21 29.5983 168.319 29.1882 166.789C28.7762 165.251 29.7802 163.653 31.4215 163.214L35.5391 162.11L28.6314 158.436C27.1791 157.664 26.709 155.91 27.5805 154.515C28.4521 153.119 30.333 152.615 31.7853 153.388L38.6475 157.038L42.8364 150.332C43.7079 148.937 45.5888 148.433 47.0411 149.206C48.4934 149.978 48.9635 151.732 48.092 153.128L43.8759 159.876L47.841 158.814C49.4895 158.372 51.1524 159.263 51.5626 160.793Z" fill="url(#paint1_linear)"/>
<path opacity="0.2" fill-rule="evenodd" clip-rule="evenodd" d="M81.804 71.2048C82.738 71.0198 83.6536 71.4817 83.998 72.2899L89.8982 94.3211C90.0949 95.237 89.5344 96.1683 88.5982 96.5043L68.7607 101.82C67.7542 101.996 66.7804 101.43 66.529 100.492L61.6982 82.4632C61.9106 82.7102 62.2359 82.8673 62.6067 82.8645L73.8336 82.816C73.9735 82.8154 74.1049 82.7944 74.2307 82.7522C74.3599 82.7232 74.4878 82.6776 74.6064 82.6089L84.3507 77.0382C84.9267 76.7106 85.1242 76.0158 84.7961 75.4845C84.468 74.9532 83.7364 74.7913 83.1603 75.1189L73.6427 80.5579L62.6807 80.6064C62.0784 80.6088 61.5641 81.0306 61.4639 81.5773L60.6828 78.6621C60.5067 77.7436 61.0864 76.8157 62.0403 76.5004L81.804 71.2048ZM80.3138 87.7239C80.475 88.3255 80.0822 88.9505 79.44 89.1226L77.3944 89.6707L77.7309 90.9269L79.7795 90.378C80.4244 90.2051 81.075 90.5535 81.2355 91.1524C81.3967 91.754 81.0039 92.379 80.3618 92.5511L78.3132 93.1L78.6903 94.5072C78.8515 95.1088 78.4586 95.7338 77.8165 95.9059C77.1716 96.0787 76.521 95.7304 76.3605 95.1315L75.9834 93.7242L73.9349 94.2731C73.2899 94.446 72.6393 94.0977 72.4788 93.4987C72.3176 92.8972 72.7105 92.2721 73.3526 92.1L75.4011 91.5511L75.0645 90.295L73.016 90.8439C72.371 91.0167 71.7204 90.6684 71.56 90.0695C71.3988 89.4679 71.7916 88.8428 72.4337 88.6708L74.0447 88.2391L71.3421 86.8017C70.7739 86.4995 70.59 85.8131 70.931 85.2673C71.272 84.7215 72.0079 84.5243 72.5761 84.8265L75.2609 86.2545L76.8997 83.6311C77.2407 83.0852 77.9766 82.8881 78.5448 83.1903C79.113 83.4925 79.2969 84.1789 78.9559 84.7247L77.3064 87.3651L78.8578 86.9495C79.5027 86.7766 80.1533 87.125 80.3138 87.7239Z" fill="url(#paint2_linear)"/>
<g opacity="0.2" filter="url(#filter0_f)">
<path fill-rule="evenodd" clip-rule="evenodd" d="M222.708 2.32626C221.536 2.09413 220.387 2.67391 219.954 3.68819L212.549 31.3398C212.302 32.4893 213.006 33.6582 214.181 34.08L239.079 40.7514C240.342 40.9723 241.564 40.2624 241.88 39.0849L247.943 16.4568C247.676 16.7668 247.268 16.964 246.803 16.9605L232.712 16.8996C232.536 16.8989 232.371 16.8725 232.213 16.8195C232.051 16.7832 231.891 16.7259 231.742 16.6397L219.512 9.64791C218.789 9.23671 218.541 8.3646 218.953 7.69777C219.364 7.03095 220.283 6.8278 221.006 7.239L232.951 14.0654L246.71 14.1264C247.466 14.1293 248.111 14.6588 248.237 15.3449L249.217 11.6861C249.438 10.5332 248.711 9.36856 247.514 8.97287L222.708 2.32626ZM224.578 23.0596C224.376 23.8146 224.869 24.5991 225.675 24.8151L228.243 25.5031L227.82 27.0797L225.249 26.3907C224.44 26.1738 223.623 26.611 223.422 27.3627C223.219 28.1178 223.712 28.9023 224.518 29.1182L227.089 29.8072L226.616 31.5734C226.414 32.3284 226.907 33.1129 227.713 33.3289C228.522 33.5458 229.339 33.1086 229.54 32.3569L230.014 30.5907L232.585 31.2796C233.394 31.4965 234.211 31.0594 234.412 30.3076C234.614 29.5526 234.121 28.7681 233.315 28.5521L230.744 27.8632L231.167 26.2866L233.738 26.9755C234.547 27.1924 235.364 26.7553 235.565 26.0035C235.768 25.2485 235.275 24.464 234.469 24.248L232.447 23.7063L235.839 21.9022C236.552 21.5229 236.783 20.6614 236.355 19.9763C235.927 19.2912 235.003 19.0437 234.29 19.4231L230.92 21.2153L228.863 17.9226C228.435 17.2376 227.512 16.9901 226.799 17.3694C226.086 17.7487 225.855 18.6102 226.283 19.2953L228.353 22.6093L226.406 22.0876C225.596 21.8707 224.78 22.3079 224.578 23.0596Z" fill="url(#paint3_linear)"/>
</g>
<path d="M123.417 101.699C123.417 101.699 51.5186 126.859 62.8083 237.985C62.8083 237.985 78.8517 268.537 113.315 269.736C147.482 270.934 223.837 269.736 223.837 269.736L218.192 195.751H260.974C260.974 195.751 258.3 104.395 164.714 95.4087C164.417 95.4087 153.127 95.4087 123.417 101.699Z" fill="url(#paint4_linear)"/>
<path d="M135.749 88.786L127.133 102.265C127.133 102.265 148.227 118.14 161.299 102.265L149.712 83.3945C149.712 83.3945 135.749 82.4959 135.749 88.786Z" fill="#F0BA98"/>
<path d="M260.672 195.454C260.672 195.454 276.716 281.119 216.999 269.438L128.166 249.07L120.441 232.296L220.861 232.895L217.89 195.454H260.672Z" fill="#F0BA98"/>
<path d="M63.1875 270.034C57.3427 270.034 52.0302 266.639 49.5751 261.334L23.7209 205.479C23.1074 204.154 24.0753 202.639 25.5359 202.639H117.75C118.496 202.639 119.18 203.054 119.524 203.716L154.021 270.034H63.1875Z" fill="#F1F1F1"/>
<path d="M91.7676 237.004C91.8476 237.004 91.9216 237.035 91.9816 237.088L92.0077 237.115L102.72 249.222C102.765 249.273 102.795 249.337 102.809 249.407C102.822 249.476 102.817 249.549 102.795 249.615C102.773 249.682 102.734 249.74 102.683 249.784C102.632 249.827 102.572 249.853 102.508 249.86H94.6888C94.6101 249.86 94.5337 249.83 94.4727 249.775L94.4487 249.75L83.7361 237.644C83.691 237.593 83.6599 237.528 83.6463 237.459C83.6328 237.389 83.6374 237.316 83.6597 237.249C83.6819 237.182 83.7209 237.123 83.772 237.079C83.823 237.036 83.8841 237.01 83.9481 237.004H91.7676ZM74.2719 237.002H82.0633C82.3534 237.002 82.5035 237.381 82.3234 237.619L82.3034 237.641L71.5907 249.748C71.5357 249.81 71.4627 249.849 71.3846 249.857H63.5592C63.4954 249.857 63.4329 249.836 63.379 249.798C63.3251 249.76 63.2821 249.705 63.2549 249.641C63.2277 249.577 63.2174 249.505 63.2252 249.434C63.233 249.364 63.2586 249.297 63.2991 249.242L63.3191 249.22L74.0318 237.113C74.0866 237.05 74.1596 237.01 74.2379 237.002H74.2719ZM71.3526 222.817C71.4327 222.817 71.5067 222.848 71.5687 222.906L71.5928 222.928L82.3034 235.035C82.3485 235.086 82.3796 235.15 82.3931 235.22C82.4066 235.29 82.402 235.363 82.3798 235.43C82.3575 235.497 82.3186 235.556 82.2675 235.599C82.2164 235.643 82.1553 235.669 82.0913 235.675H74.2718C74.1939 235.675 74.1182 235.645 74.0578 235.59L74.0317 235.563L63.3191 223.457C63.2746 223.406 63.244 223.342 63.2308 223.272C63.2177 223.202 63.2224 223.13 63.2446 223.063C63.2668 222.997 63.3055 222.938 63.3562 222.895C63.4069 222.852 63.4676 222.826 63.5312 222.819H71.3526L71.3526 222.817ZM102.48 222.817C102.77 222.817 102.92 223.196 102.74 223.434L102.72 223.457L92.0077 235.563C91.9529 235.626 91.8799 235.666 91.8016 235.675H83.9761C83.9119 235.675 83.849 235.655 83.7948 235.616C83.7406 235.578 83.6973 235.523 83.67 235.458C83.6427 235.393 83.6325 235.321 83.6407 235.25C83.6489 235.179 83.675 235.112 83.716 235.057L83.7361 235.035L94.4487 222.928C94.5038 222.866 94.5768 222.827 94.6548 222.819H102.48V222.817Z" fill="#ADADAD"/>
<path d="M158.606 142.598C158.651 142.598 158.692 142.615 158.725 142.645L158.739 142.66L164.692 149.375C164.716 149.404 164.733 149.439 164.741 149.478C164.748 149.516 164.745 149.556 164.733 149.593C164.721 149.631 164.699 149.663 164.671 149.687C164.643 149.711 164.609 149.725 164.574 149.729H160.229C160.185 149.729 160.143 149.713 160.109 149.682L160.096 149.668L154.144 142.953C154.119 142.925 154.101 142.889 154.094 142.85C154.086 142.812 154.089 142.771 154.101 142.734C154.114 142.697 154.135 142.664 154.164 142.64C154.192 142.616 154.226 142.602 154.261 142.598H158.606ZM148.885 142.597H153.214C153.375 142.597 153.459 142.807 153.359 142.939L153.348 142.952L147.396 149.667C147.365 149.702 147.324 149.723 147.281 149.728H142.933C142.898 149.728 142.863 149.716 142.833 149.695C142.803 149.674 142.779 149.644 142.764 149.608C142.749 149.572 142.743 149.532 142.748 149.493C142.752 149.454 142.766 149.417 142.789 149.386L142.8 149.374L148.752 142.659C148.782 142.624 148.823 142.602 148.866 142.597H148.885ZM147.263 134.729C147.308 134.729 147.349 134.746 147.383 134.778L147.397 134.791L153.348 141.506C153.373 141.534 153.39 141.57 153.397 141.609C153.405 141.648 153.402 141.688 153.39 141.725C153.378 141.762 153.356 141.795 153.328 141.819C153.299 141.843 153.265 141.858 153.23 141.861H148.885C148.842 141.861 148.8 141.845 148.766 141.814L148.752 141.799L142.8 135.084C142.775 135.056 142.758 135.02 142.751 134.981C142.743 134.943 142.746 134.903 142.758 134.866C142.771 134.829 142.792 134.796 142.82 134.772C142.848 134.748 142.882 134.734 142.918 134.73H147.263L147.263 134.729ZM164.558 134.729C164.719 134.729 164.803 134.939 164.703 135.072L164.692 135.084L158.739 141.799C158.709 141.834 158.668 141.856 158.625 141.861H154.277C154.241 141.861 154.206 141.85 154.176 141.828C154.146 141.807 154.122 141.777 154.107 141.741C154.092 141.705 154.086 141.665 154.091 141.626C154.095 141.586 154.11 141.549 154.133 141.519L154.144 141.506L160.096 134.791C160.126 134.756 160.167 134.735 160.21 134.73H164.558V134.729Z" fill="#FADBC4"/>
<path d="M218.188 195.451C218.188 195.451 211.058 150.222 203.036 144.231H201.848C201.848 144.231 214.326 176.88 218.485 198.147L218.188 195.451Z" fill="#FA6A1C"/>
<path d="M95.793 202.637C95.793 202.637 99.3582 151.717 117.481 146.026C117.481 146.026 107.974 154.113 95.793 202.637Z" fill="#FA6A1C"/>
<path d="M213.436 266.649L199.77 265.751L217.001 269.645C276.718 281.626 260.675 195.661 260.675 195.661H256.813C257.11 195.96 276.124 273.838 213.436 266.649Z" fill="#E6B393"/>
<path d="M133.246 92.729C133.246 92.729 146.319 102.609 153.746 89.729L147.783 80.1313L137.746 85.729L133.246 92.729Z" fill="#E4AF8E"/>
<path d="M124.007 65.5286C124.007 65.5286 113.905 56.5426 115.688 37.0731L109.746 25.3915C109.746 25.3915 151.043 19.4009 153.717 25.3915C156.391 31.3821 152.826 59.8375 152.826 59.8375C152.826 59.8375 122.521 60.4365 124.007 65.5286Z" fill="#201C13"/>
<path d="M121.602 53.4794C121.602 53.4794 125.167 90.3217 142.399 92.718C142.399 92.718 159.631 91.8194 150.421 47.1893L148.044 35.8071L120.711 41.4982L121.602 53.4794Z" fill="#F0BA98"/>
<path d="M222.746 235.729C222.746 253.403 208.42 267.729 190.746 267.729C173.073 267.729 158.746 253.403 158.746 235.729C158.746 218.056 173.073 203.729 190.746 203.729C208.42 203.729 222.746 218.056 222.746 235.729Z" fill="#FF974B"/>
<path d="M196.192 241.455C196.085 241.823 195.909 242.166 195.672 242.464C195.435 242.761 195.142 243.008 194.811 243.19C194.481 243.373 194.118 243.488 193.744 243.528C193.37 243.567 192.992 243.531 192.632 243.42L185.298 241.191L186.932 235.594L194.266 237.823H194.266C195.778 238.282 196.642 239.912 196.192 241.455ZM198.665 229.984C198.845 230.321 198.958 230.691 198.996 231.072C199.035 231.454 198.999 231.839 198.891 232.207C198.441 233.75 196.843 234.631 195.332 234.172H195.331L187.997 231.943L189.631 226.346L196.965 228.574C197.326 228.683 197.662 228.863 197.954 229.105C198.245 229.347 198.487 229.646 198.665 229.984V229.984ZM201.948 228.171C201.11 226.59 199.719 225.437 198.031 224.924L197.06 224.629L198.419 219.974L194.933 218.915L193.575 223.57L190.599 222.665L191.958 218.011L191.123 217.757L187.74 216.729L186.43 221.216L182.308 219.963L181.145 223.949L185.267 225.202L181.032 239.712L176.91 238.459L175.746 242.446L179.868 243.699L178.763 247.485L179.598 247.739L182.98 248.767L184.135 244.812L187.118 245.719L185.963 249.674L189.435 250.729L190.589 246.774L191.566 247.071C192.18 247.258 192.817 247.353 193.458 247.354C194.539 247.354 195.609 247.08 196.587 246.54C198.136 245.685 199.266 244.265 199.769 242.542C200.298 240.73 200.037 238.868 199.196 237.336C200.723 236.523 201.939 235.107 202.469 233.294C202.972 231.571 202.787 229.752 201.948 228.171" fill="url(#paint5_linear)"/>
<g clip-path="url(#clip1)">
<path d="M154.682 249.986C154.682 259.329 147.109 266.902 137.767 266.902C128.425 266.902 120.852 259.329 120.852 249.986C120.852 240.644 128.425 233.071 137.767 233.071C147.109 233.071 154.682 240.644 154.682 249.986" fill="#113CD6"/>
<path d="M145.705 241.601H129.688V245.468H135.763V251.151H139.63V245.468H145.705V241.601Z" fill="white"/>
<path d="M137.734 251.759C132.708 251.759 128.634 250.964 128.634 249.982C128.634 249.001 132.708 248.206 137.734 248.206C142.759 248.206 146.833 249.001 146.833 249.982C146.833 250.964 142.759 251.759 137.734 251.759ZM147.951 250.279C147.951 249.013 143.377 247.988 137.734 247.988C132.091 247.988 127.516 249.013 127.516 250.279C127.516 251.393 131.063 252.321 135.764 252.527V260.686H139.63V252.53C144.367 252.331 147.951 251.399 147.951 250.279Z" fill="white"/>
</g>
</g>
<defs>
<filter id="filter0_f" x="206.969" y="-3.271" width="47.8155" height="49.611" filterUnits="userSpaceOnUse" color-interpolation-filters="sRGB">
<feFlood flood-opacity="0" result="BackgroundImageFix"/>
<feBlend mode="normal" in="SourceGraphic" in2="BackgroundImageFix" result="shape"/>
<feGaussianBlur stdDeviation="2.5" result="effect1_foregroundBlur"/>
</filter>
<linearGradient id="paint0_linear" x1="269.601" y1="84.1033" x2="219.944" y2="196.189" gradientUnits="userSpaceOnUse">
<stop stop-color="white"/>
<stop offset="1" stop-color="#F9831F" stop-opacity="0.54"/>
</linearGradient>
<linearGradient id="paint1_linear" x1="30.0703" y1="125.351" x2="47.3998" y2="190.025" gradientUnits="userSpaceOnUse">
<stop stop-color="white"/>
<stop offset="1" stop-color="#FE871E" stop-opacity="0.46"/>
</linearGradient>
<linearGradient id="paint2_linear" x1="71.9051" y1="73.8571" x2="78.6851" y2="99.1605" gradientUnits="userSpaceOnUse">
<stop stop-color="white"/>
<stop offset="1" stop-color="#FF7223"/>
</linearGradient>
<linearGradient id="paint3_linear" x1="235.132" y1="5.6553" x2="226.623" y2="37.4138" gradientUnits="userSpaceOnUse">
<stop stop-color="white"/>
<stop offset="1" stop-color="#FF7223"/>
</linearGradient>
<linearGradient id="paint4_linear" x1="92.3859" y1="130.532" x2="161.039" y2="270.391" gradientUnits="userSpaceOnUse">
<stop stop-color="#FFAF37"/>
<stop offset="1" stop-color="#FF5823"/>
</linearGradient>
<linearGradient id="paint5_linear" x1="189.246" y1="216.729" x2="189.246" y2="250.729" gradientUnits="userSpaceOnUse">
<stop stop-color="white"/>
<stop offset="1" stop-color="#FFC296"/>
</linearGradient>
<clipPath id="clip0">
<rect width="321" height="270" fill="white" transform="translate(0.554688 0.445801)"/>
</clipPath>
<clipPath id="clip1">
<rect width="34" height="34" fill="white" transform="translate(120.711 232.993)"/>
</clipPath>
</defs>
</svg>
