<?xml version="1.0" standalone="no"?><!DOCTYPE svg PUBLIC "-//W3C//DTD SVG 1.1//EN" "http://www.w3.org/Graphics/SVG/1.1/DTD/svg11.dtd"><svg t="1598507351457" class="icon" viewBox="0 0 1066 1024" version="1.1" xmlns="http://www.w3.org/2000/svg" p-id="3063" xmlns:xlink="http://www.w3.org/1999/xlink" width="208.203125" height="200"><defs><style type="text/css"></style></defs><path d="M531.072 810.666667a298.666667 298.666667 0 1 1 0-597.333334 298.666667 298.666667 0 0 1 0 597.333334z m0 85.333333a384 384 0 1 0 0-768 384 384 0 0 0 0 768z" fill="#9A9EAC" p-id="3064"></path><path d="M531.072 352a42.666667 42.666667 0 0 1 42.666667 42.666667v110.336l94.165333 94.165333a42.666667 42.666667 0 0 1-60.330667 60.373333l-119.168-119.168V394.666667a42.666667 42.666667 0 0 1 42.666667-42.666667z" fill="#9A9EAC" p-id="3065"></path></svg>