<?xml version="1.0" standalone="no"?><!DOCTYPE svg PUBLIC "-//W3C//DTD SVG 1.1//EN" "http://www.w3.org/Graphics/SVG/1.1/DTD/svg11.dtd"><svg t="1598507397760" class="icon" viewBox="0 0 1024 1024" version="1.1" xmlns="http://www.w3.org/2000/svg" p-id="3256" xmlns:xlink="http://www.w3.org/1999/xlink" width="200" height="200"><defs><style type="text/css"></style></defs><path d="M190.21824 512.08192a618.37312 618.37312 0 0 1 79.38048-106.04544C328.99072 342.67136 411.07456 284.91776 512 284.91776s183.00928 57.7536 242.40128 121.11872a618.65984 618.65984 0 0 1 79.38048 106.04544 618.78272 618.78272 0 0 1-79.38048 106.04544c-59.392 63.32416-141.47584 121.07776-242.40128 121.07776s-183.00928-57.7536-242.40128-121.11872a618.496 618.496 0 0 1-79.38048-106.00448z m690.42176 0l36.61824-18.35008-0.04096-0.12288-0.12288-0.24576-0.4096-0.8192a229.90848 229.90848 0 0 0-6.5536-12.0832 700.0064 700.0064 0 0 0-95.92832-130.4576C747.84768 279.30624 645.61152 202.99776 512 202.99776S276.0704 279.3472 209.83808 350.0032A700.25216 700.25216 0 0 0 113.8688 480.4608a422.78912 422.78912 0 0 0-6.5536 12.12416l-0.4096 0.77824-0.12288 0.24576v0.08192s-0.04096 0.04096 36.57728 18.39104l-36.61824-18.35008a40.96 40.96 0 0 0 0 36.6592L143.36 512.08192l-36.61824 18.30912 0.04096 0.12288 0.12288 0.28672 0.4096 0.77824a288.07168 288.07168 0 0 0 6.5536 12.0832 700.45696 700.45696 0 0 0 95.96928 130.4576c66.27328 70.69696 168.50944 147.0464 302.16192 147.0464s235.9296-76.34944 302.16192-147.0464a700.2112 700.2112 0 0 0 95.96928-130.4576 427.8272 427.8272 0 0 0 6.5536-12.0832l0.4096-0.8192 0.12288-0.24576v-0.08192s0.08192-0.04096-36.57728-18.35008z m0 0l36.6592 18.30912c5.7344-11.55072 5.7344-25.14944 0-36.6592l-36.6592 18.35008z" fill="#9A9EAC" p-id="3257"></path><path d="M512 452.48512a59.5968 59.5968 0 1 0 0 119.1936 59.5968 59.5968 0 0 0 0-119.1936z m-141.47584 59.5968a141.5168 141.5168 0 1 1 282.99264 0 141.5168 141.5168 0 0 1-283.0336 0z" fill="#9A9EAC" p-id="3258"></path></svg>