<svg width="53" height="57" viewBox="0 0 53 57" fill="none" xmlns="http://www.w3.org/2000/svg">
<path d="M25.1854 23.3022C25.2887 21.0243 23.4698 19.1211 21.1896 19.1211H2.0027C0.898132 19.1211 0.00270462 20.0165 0.00270462 21.1211V54.628C0.00270462 55.7325 0.898134 56.628 2.0027 56.628H19.8518C21.9905 56.628 23.7509 54.9456 23.8477 52.8091L25.1854 23.3022Z" fill="#E6E6E6"/>
<path d="M51.9766 2C51.9766 0.89543 51.0811 0 49.9766 0L11.5487 0C10.4441 0 9.54868 0.895431 9.54868 2V54.628C9.54868 55.7326 10.4441 56.628 11.5487 56.628H29.1217H38.2526L51.9766 42.471V28.314V2Z" fill="url(#paint0_linear)"/>
<path d="M52.0039 42.4997L40.4248 42.0757C39.2922 42.0342 38.3517 42.9382 38.3526 44.0715C38.3568 48.8184 38.3712 56.4819 38.3712 56.4819L52.0039 42.4997Z" fill="#E6E6E6"/>
<path fill-rule="evenodd" clip-rule="evenodd" d="M29.0492 12.9731C29.0492 13.5254 28.6014 13.9731 28.0492 13.9731H17.5469C16.9946 13.9731 16.5469 13.5254 16.5469 12.9731V10.5605C16.5469 10.0083 16.9946 9.56055 17.5469 9.56055H28.0492C28.6015 9.56055 29.0492 10.0083 29.0492 10.5605V12.9731Z" fill="#F6F6F6"/>
<path fill-rule="evenodd" clip-rule="evenodd" d="M43.7601 12.9731C43.7601 13.5254 43.3124 13.9731 42.7601 13.9731H32.2578C31.7055 13.9731 31.2578 13.5254 31.2578 12.9731V10.5605C31.2578 10.0083 31.7055 9.56055 32.2578 9.56055H42.7601C43.3124 9.56055 43.7601 10.0083 43.7601 10.5605V12.9731Z" fill="#9A9EAC"/>
<path fill-rule="evenodd" clip-rule="evenodd" d="M43.7577 26.9465C43.7577 27.4988 43.31 27.9465 42.7577 27.9465H17.5469C16.9946 27.9465 16.5469 27.4988 16.5469 26.9465V17.915C16.5469 17.3628 16.9946 16.915 17.5469 16.915H42.7577C43.31 16.915 43.7577 17.3628 43.7577 17.915V26.9465Z" fill="#F6F6F6"/>
<path fill-rule="evenodd" clip-rule="evenodd" d="M43.6255 33.0369C43.6255 33.5891 43.1778 34.0369 42.6255 34.0369H17.5469C16.9946 34.0369 16.5469 33.5891 16.5469 33.0369V31.8882C16.5469 31.3359 16.9946 30.8882 17.5469 30.8882H42.6255C43.1778 30.8882 43.6255 31.3359 43.6255 31.8882V33.0369Z" fill="#F6F6F6"/>
<defs>
<linearGradient id="paint0_linear" x1="30.7626" y1="0" x2="30.7626" y2="56.628" gradientUnits="userSpaceOnUse">
<stop stop-color="white"/>
<stop offset="0.541667" stop-color="white"/>
<stop offset="1" stop-color="#FDFDFD"/>
</linearGradient>
</defs>
</svg>
