<svg width="12" height="12" viewBox="0 0 12 12" fill="none" xmlns="http://www.w3.org/2000/svg">
<path fill-rule="evenodd" clip-rule="evenodd" d="M5.70212 10.4377C8.30334 10.4377 10.412 8.32377 10.412 5.71615C10.412 3.10853 8.30334 0.994634 5.70212 0.994634C3.1009 0.994634 0.992193 3.10853 0.992193 5.71615C0.992193 8.32377 3.1009 10.4377 5.70212 10.4377ZM5.70212 11.4323C8.85131 11.4323 11.4042 8.87309 11.4042 5.71615C11.4042 2.55921 8.85131 0 5.70212 0C2.55293 0 0 2.55921 0 5.71615C0 8.87309 2.55293 11.4323 5.70212 11.4323Z" fill="#E4E5E9"/>
<path fill-rule="evenodd" clip-rule="evenodd" d="M9.10616 9.3095C9.29084 9.10661 9.60462 9.09221 9.80702 9.27734L11.8383 11.1353C12.0407 11.3204 12.055 11.635 11.8704 11.8379C11.6857 12.0408 11.3719 12.0552 11.1695 11.8701L9.13825 10.0121C8.93586 9.82695 8.92149 9.51239 9.10616 9.3095Z" fill="#E4E5E9"/>
</svg>
