<?xml version="1.0" standalone="no"?><!DOCTYPE svg PUBLIC "-//W3C//DTD SVG 1.1//EN" "http://www.w3.org/Graphics/SVG/1.1/DTD/svg11.dtd"><svg t="1598507424813" class="icon" viewBox="0 0 1024 1024" version="1.1" xmlns="http://www.w3.org/2000/svg" p-id="3419" width="200" height="200" xmlns:xlink="http://www.w3.org/1999/xlink"><defs><style type="text/css"></style></defs><path d="M511.91808 305.07008a241.70496 241.70496 0 0 0-55.7056 6.3488 40.96 40.96 0 0 1-18.6368-79.74912 323.66592 323.66592 0 0 1 74.46528-8.51968h0.04096l-0.08192 40.96v-40.96h0.04096c124.84608 0 220.11904 71.2704 281.68192 136.92928a650.81344 650.81344 0 0 1 89.21088 121.2416 377.52832 377.52832 0 0 1 6.10304 11.30496l0.4096 0.73728 0.08192 0.24576 0.04096 0.08192s0 0.08192-36.61824 18.39104l-36.00384 18.0224c-3.44064 6.47168-7.168-24.41216-10.93632-18.06336a568.97536 568.97536 0 0 0-72.0896-95.92832c-54.64064-58.32704-129.80224-111.04256-221.92128-111.04256h-0.08192z m294.0928 206.97088a532.64384 532.64384 0 0 1-51.32288 72.54016 40.96 40.96 0 1 0 62.6688 52.75648 614.44096 614.44096 0 0 0 71.72096-105.96352 40.96 40.96 0 0 0 0.53248-37.60128l-36.6592 18.30912-36.61824 18.35008-0.16384-0.32768a286.47424 286.47424 0 0 0-10.15808-18.0224zM303.02208 295.40352a40.96 40.96 0 0 1 53.82144 3.60448l118.25152 118.25152 0.28672 0.28672 131.19488 131.15392 0.24576 0.28672 118.25152 118.25152a40.96 40.96 0 0 1-4.096 61.52192 353.0752 353.0752 0 0 1-208.32256 72.25344H512c-124.84608 0-220.16-71.2704-281.72288-136.92928a650.89536 650.89536 0 0 1-89.16992-121.2416 399.03232 399.03232 0 0 1-6.144-11.34592l-0.36864-0.73728-0.12288-0.2048v-0.08192s-0.08192-0.08192 36.57728-18.432l-36.6592 18.35008a40.96 40.96 0 0 1 0.57344-37.6832 612.84352 612.84352 0 0 1 168.05888-197.30432z m-85.03296 216.76032a568.9344 568.9344 0 0 0 72.04864 95.88736c54.59968 58.24512 129.67936 110.91968 221.5936 111.0016a271.1552 271.1552 0 0 0 119.3984-30.02368l-57.09824-57.09824a135.04512 135.04512 0 0 1-61.8496 16.384 133.9392 133.9392 0 0 1-119.93088-198.16448L325.09952 383.09888a530.88256 530.88256 0 0 0-107.1104 129.06496z m239.69792 3.52256a52.0192 52.0192 0 0 0 50.70848 50.70848l-50.70848-50.70848z" fill="#9A9EAc" p-id="3420"></path><path d="M142.1312 142.1312a40.96 40.96 0 0 1 57.87648 0L881.95072 824.1152a40.96 40.96 0 0 1-57.91744 57.91744L142.09024 200.0896a40.96 40.96 0 0 1 0-57.9584z" fill="#9A9EAc" p-id="3421"></path></svg>