<svg width="51" height="14" viewBox="0 0 51 14" fill="none" xmlns="http://www.w3.org/2000/svg">
<path d="M0.693359 0.894531L7.83076 6.99693V13.715L0.693359 7.61264V0.894531ZM15.4297 0.894531V7.61264L8.29284 13.715V6.99693L15.4297 0.894531ZM8.06151 3.16714L9.77586 4.64963L8.06151 6.05014L6.34773 4.64963L8.06151 3.16714Z" fill="#E60023"/>
<path d="M19.1895 2.91797H22.3126C22.9309 2.91797 23.391 2.94789 23.693 3.00772C23.9986 3.06357 24.2704 3.18324 24.5085 3.36674C24.7501 3.55023 24.9508 3.79556 25.1107 4.10272C25.2706 4.40589 25.3505 4.74695 25.3505 5.12591C25.3505 5.53678 25.251 5.91375 25.0521 6.25681C24.8567 6.59987 24.5902 6.85716 24.2526 7.02869C24.7287 7.18426 25.0947 7.44953 25.3505 7.82451C25.6064 8.19948 25.7343 8.64027 25.7343 9.14688C25.7343 9.54578 25.6508 9.93472 25.4838 10.3137C25.3203 10.6886 25.0947 10.9898 24.8069 11.2172C24.5227 11.4406 24.1709 11.5782 23.7516 11.6301C23.4887 11.662 22.8545 11.6819 21.849 11.6899H19.1895V2.91797ZM20.767 4.37796V6.4064H21.801C22.4157 6.4064 22.7976 6.39642 22.9469 6.37648C23.2169 6.34058 23.4283 6.23686 23.5811 6.06533C23.7374 5.88981 23.8156 5.66044 23.8156 5.37722C23.8156 5.10597 23.7481 4.88657 23.6131 4.71903C23.4816 4.5475 23.2844 4.44378 23.0215 4.40788C22.8651 4.38794 22.4157 4.37796 21.6731 4.37796H20.767ZM20.767 7.86639V10.212H22.2274C22.7959 10.212 23.1565 10.194 23.3093 10.1581C23.5438 10.1102 23.7339 9.99455 23.8796 9.81106C24.0288 9.62357 24.1034 9.37425 24.1034 9.06311C24.1034 8.79983 24.0465 8.57644 23.9328 8.39295C23.8191 8.20945 23.6539 8.07582 23.4372 7.99205C23.224 7.90828 22.7585 7.86639 22.0408 7.86639H20.767Z" fill="#1E2846"/>
<path d="M27.0507 11.6899V2.91797H29.4117L30.8294 8.90155L32.2311 2.91797H34.5975V11.6899H33.1318V4.78485L31.5809 11.6899H30.062L28.5164 4.78485V11.6899H27.0507Z" fill="#1E2846"/>
<path d="M36.1644 11.6899V2.91797H41.9577V4.4019H37.742V6.34656H41.6646V7.82451H37.742V10.212H42.107V11.6899H36.1644Z" fill="#1E2846"/>
<path d="M42.6506 11.6899L45.3208 7.11246L42.9011 2.91797H44.7452L46.3121 5.73624L47.847 2.91797H49.6751L47.2448 7.17828L49.9149 11.6899H48.0122L46.2801 8.65622L44.5426 11.6899H42.6506Z" fill="#1E2846"/>
</svg>
