<svg width="40" height="15" viewBox="0 0 40 15" fill="none" xmlns="http://www.w3.org/2000/svg">
<path d="M1.65298 8.60987C2.68987 10.517 4.23809 10.339 4.5728 8.69034L3.51953 6.34808C3.34434 5.992 2.81806 6.25051 2.97758 6.60659L3.55157 7.80086C3.66338 8.043 3.31229 8.20465 3.20048 7.9789L2.06816 5.58608L1.78046 4.98858C1.60527 4.63251 1.07828 4.89173 1.25346 5.2471L2.06745 6.92777C2.21131 7.21904 1.76479 7.4455 1.62093 7.15423L1.30189 6.47555C1.1267 6.11948 0.647425 6.36232 0.823326 6.71768C1.68503 8.59278 0.775612 6.78249 1.65298 8.60916V8.60987Z" fill="#FF8B00"/>
<path d="M11.7681 0.347656L5.08244 4.90542C6.26318 4.40478 6.58223 4.88975 6.03957 5.92379C5.73619 6.48995 5.25763 7.39509 4.60387 8.6556C3.88531 10.013 2.43395 10.013 1.66768 8.59151L4.36459 14.2638L11.7681 0.349081V0.347656ZM2.84914 6.13388C2.9395 6.12815 3.02428 6.08822 3.08625 6.02221C3.14821 5.95619 3.1827 5.86905 3.1827 5.77851C3.1827 5.68797 3.14821 5.60083 3.08625 5.53482C3.02428 5.4688 2.9395 5.42887 2.84914 5.42315C2.65757 5.42315 2.51443 5.58481 2.51443 5.77922C2.51443 5.97293 2.67395 6.13388 2.84914 6.13388ZM0.598742 6.0534C0.634702 6.0535 0.670322 6.04643 0.703519 6.03261C0.736716 6.01878 0.766825 5.99848 0.792086 5.97289C0.817348 5.9473 0.837255 5.91693 0.850645 5.88355C0.864035 5.85018 0.870639 5.81447 0.870071 5.77851C0.868489 5.70684 0.839598 5.63847 0.789301 5.58738C0.739004 5.53629 0.671097 5.50633 0.599454 5.50362C0.527686 5.50615 0.459601 5.53603 0.409154 5.58714C0.358707 5.63825 0.329717 5.70672 0.328125 5.77851C0.328125 5.92379 0.4556 6.0534 0.598742 6.0534ZM1.09369 4.61486C1.17881 4.61411 1.26017 4.57967 1.31996 4.51907C1.37975 4.45848 1.41311 4.37667 1.41273 4.29154C1.41311 4.20642 1.37975 4.12461 1.31996 4.06401C1.26017 4.00342 1.17881 3.96898 1.09369 3.96823C1.00856 3.96898 0.927203 4.00342 0.867411 4.06401C0.807619 4.12461 0.774263 4.20642 0.774643 4.29154C0.774643 4.46958 0.918497 4.61486 1.09369 4.61486ZM2.46529 5.27716C2.60914 5.27716 2.73662 5.14826 2.73662 5.00298C2.73503 4.9313 2.70614 4.86294 2.65585 4.81185C2.60555 4.76075 2.53764 4.7308 2.466 4.72809C2.42998 4.7279 2.39428 4.7349 2.361 4.74868C2.32772 4.76246 2.29753 4.78275 2.27219 4.80835C2.24685 4.83395 2.22688 4.86435 2.21345 4.89778C2.20002 4.9312 2.19339 4.96697 2.19396 5.00298C2.17829 5.16464 2.30577 5.27716 2.46529 5.27716ZM10.3317 7.84802L11.3529 2.01266L5.13015 13.7468C6.11933 12.2441 8.40106 7.36233 10.3317 7.84731V7.84802Z" fill="#FF8B00"/>
<path d="M25.0405 3.12695L22.3151 11.4698H20.1922L17.4668 3.12695H19.5897L21.5624 9.18165L23.5194 3.12695H25.0405ZM31.6642 8.43461C31.6493 9.36468 31.3181 10.1117 30.6701 10.7064C30.1132 11.2099 29.3754 11.4698 28.4417 11.4698H25.9129V10.0968H28.4425C28.8192 10.0968 29.1354 9.9287 29.3611 9.59327C29.5869 9.28847 29.7072 8.87685 29.7072 8.38832C29.7072 7.8542 29.5719 7.42763 29.3155 7.12283C29.0748 6.8636 28.7886 6.72616 28.4425 6.72616H27.9012V9.82259H25.9286V3.12695H27.9012V5.33818H28.4425C29.5121 5.33818 30.294 5.58245 30.7918 6.08594C31.3637 6.64996 31.65 7.42763 31.6649 8.43461H31.6642Z" fill="#404862"/>
<path d="M35.0062 3.70593V5.064C34.1175 5.064 33.5007 4.92656 33.1689 4.62104C32.7929 4.31624 32.6419 3.81275 32.7024 3.12695H34.3738C34.3439 3.32493 34.3738 3.47733 34.4792 3.56849C34.5846 3.66107 34.7648 3.70593 35.0062 3.70593Z" fill="#FF8B00"/>
<path d="M34.9023 5.32561H32.9297V11.4715H34.9023V5.32561ZM39.72 10.0991V11.4722H38.6518C37.9133 11.4722 37.4162 11.3041 37.1606 10.953C36.9498 10.6938 36.8593 10.2515 36.8593 9.64195V6.72854H35.9407V5.34056H36.8593V3.69336H38.832V5.32561H39.9615V6.71359H38.8313V9.62628C38.8313 9.93179 38.9666 10.0842 39.2073 10.0991H39.72Z" fill="#404862"/>
</svg>
