<svg width="60" height="11" viewBox="0 0 60 11" fill="none" xmlns="http://www.w3.org/2000/svg">
<path d="M9.23576 5.73569H12.4399C12.4728 5.73569 12.5032 5.74721 12.5279 5.76696L12.5386 5.77683L16.9441 10.2448C16.9624 10.2637 16.9749 10.2873 16.9803 10.313C16.9858 10.3387 16.9838 10.3654 16.9747 10.39C16.9655 10.4146 16.9496 10.4361 16.9288 10.4521C16.9079 10.4681 16.883 10.4778 16.8568 10.4802H13.6412C13.6089 10.4804 13.5774 10.4693 13.5523 10.4489L13.5425 10.4398L9.13702 5.97185C9.11849 5.95304 9.10569 5.92934 9.10013 5.90352C9.09457 5.8777 9.09648 5.85084 9.10563 5.82607C9.11478 5.8013 9.13079 5.77964 9.1518 5.76364C9.1728 5.74763 9.19793 5.73794 9.22424 5.73569H12.4399H9.23576ZM5.24502 5.73487H8.44913C8.56844 5.73487 8.63016 5.87475 8.5561 5.96279L8.54787 5.97102L4.14242 10.439C4.11978 10.462 4.08977 10.4763 4.05767 10.4793H0.839563C0.813298 10.4792 0.787605 10.4716 0.765459 10.4575C0.743314 10.4434 0.725621 10.4233 0.714428 10.3995C0.703236 10.3758 0.699003 10.3493 0.702218 10.3233C0.705433 10.2972 0.715965 10.2726 0.732595 10.2522L0.740823 10.244L5.14628 5.77601C5.1688 5.75274 5.19881 5.73817 5.23103 5.73487H5.24502ZM4.0445 0.5C4.07741 0.5 4.10786 0.51152 4.13337 0.532913L4.14324 0.541142L8.54787 5.00913C8.56641 5.02794 8.5792 5.05164 8.58476 5.07746C8.59032 5.10327 8.58841 5.13014 8.57926 5.15491C8.57011 5.17968 8.5541 5.20133 8.5331 5.21734C8.51209 5.23334 8.48696 5.24304 8.46065 5.24528H5.24502C5.21294 5.24533 5.18184 5.23428 5.15697 5.21402L5.14628 5.20414L0.740823 0.736153C0.72254 0.717312 0.709963 0.69368 0.704549 0.66799C0.699135 0.642301 0.701103 0.615603 0.710227 0.590985C0.719351 0.566367 0.735258 0.544836 0.756107 0.52888C0.776957 0.512924 0.801897 0.503197 0.828044 0.500823H4.0445V0.5ZM16.8453 0.5C16.9646 0.5 17.0264 0.639881 16.9523 0.727925L16.9441 0.736153L12.5386 5.20414C12.5161 5.22741 12.4861 5.24198 12.4539 5.24528H9.23576C9.20935 5.24529 9.18348 5.23776 9.16118 5.2236C9.13889 5.20944 9.12109 5.18922 9.10987 5.1653C9.09865 5.14139 9.09447 5.11478 9.09782 5.08858C9.10117 5.06238 9.11191 5.03767 9.12879 5.01736L9.13702 5.00913L13.5425 0.541142C13.5651 0.518172 13.5951 0.503899 13.6272 0.500823H16.8453V0.5Z" fill="#83D0E1"/>
<path d="M22.0078 10.2033L25.2284 5.2856L22.3099 0.779297H24.5342L26.4241 3.80707L28.2755 0.779297H30.4804L27.5491 5.35631L30.7697 10.2033H28.4748L26.3855 6.94412L24.2899 10.2033H22.0078Z" fill="#0E2039"/>
<path d="M31.7211 10.2033V0.779297H34.5689L36.2788 7.20769L37.9695 0.779297H40.8237V10.2033H39.0559V2.78495L37.1852 10.2033H35.3532L33.4889 2.78495V10.2033H31.7211Z" fill="#0E2039"/>
<path d="M42.7137 10.2033V0.779297H49.7013V2.37354H44.6165V4.46276H49.3478V6.05058H44.6165V8.6155H49.8813V10.2033H42.7137Z" fill="#0E2039"/>
<path d="M50.537 10.2033L53.7576 5.2856L50.8391 0.779297H53.0634L54.9533 3.80707L56.8047 0.779297H59.0096L56.0783 5.35631L59.2989 10.2033H57.004L54.9147 6.94412L52.8191 10.2033H50.537Z" fill="#0E2039"/>
</svg>
